<mxfile host="app.diagrams.net" agent="Mozilla/5.0 (Windows NT 10.0; Win64; x64; rv:136.0) Gecko/20100101 Firefox/136.0" version="26.1.2">
  <diagram name="Страница — 1" id="B88cUaTn2MbKzxY1IiGs">
    <mxGraphModel dx="1320" dy="853" grid="1" gridSize="10" guides="1" tooltips="1" connect="1" arrows="1" fold="1" page="1" pageScale="1" pageWidth="827" pageHeight="1169" math="0" shadow="0">
      <root>
        <mxCell id="0" />
        <mxCell id="1" parent="0" />
        <mxCell id="-YS815tgYjxunoTYqm5n-1640" value="" style="shape=umlActor;verticalLabelPosition=bottom;verticalAlign=top;html=1;" parent="1" vertex="1">
          <mxGeometry x="90" y="100" width="30" height="60" as="geometry" />
        </mxCell>
        <mxCell id="-YS815tgYjxunoTYqm5n-1641" value="" style="ellipse;shape=umlControl;whiteSpace=wrap;html=1;" parent="1" vertex="1">
          <mxGeometry x="420" y="80" width="70" height="80" as="geometry" />
        </mxCell>
        <mxCell id="-YS815tgYjxunoTYqm5n-1642" value="" style="shape=umlBoundary;whiteSpace=wrap;html=1;" parent="1" vertex="1">
          <mxGeometry x="230" y="90" width="80" height="70" as="geometry" />
        </mxCell>
        <mxCell id="-YS815tgYjxunoTYqm5n-1643" value="" style="ellipse;shape=umlEntity;whiteSpace=wrap;html=1;" parent="1" vertex="1">
          <mxGeometry x="600" y="90" width="70" height="70" as="geometry" />
        </mxCell>
        <mxCell id="-YS815tgYjxunoTYqm5n-1644" value="Интерфейс" style="text;align=center;fontStyle=1;verticalAlign=middle;spacingLeft=3;spacingRight=3;strokeColor=none;rotatable=0;points=[[0,0.5],[1,0.5]];portConstraint=eastwest;html=1;" parent="1" vertex="1">
          <mxGeometry x="240" y="54" width="80" height="26" as="geometry" />
        </mxCell>
        <mxCell id="-YS815tgYjxunoTYqm5n-1645" value="Система" style="text;align=center;fontStyle=1;verticalAlign=middle;spacingLeft=3;spacingRight=3;strokeColor=none;rotatable=0;points=[[0,0.5],[1,0.5]];portConstraint=eastwest;html=1;" parent="1" vertex="1">
          <mxGeometry x="414" y="54" width="80" height="26" as="geometry" />
        </mxCell>
        <mxCell id="-YS815tgYjxunoTYqm5n-1646" value="База данных" style="text;align=center;fontStyle=1;verticalAlign=middle;spacingLeft=3;spacingRight=3;strokeColor=none;rotatable=0;points=[[0,0.5],[1,0.5]];portConstraint=eastwest;html=1;" parent="1" vertex="1">
          <mxGeometry x="595" y="54" width="80" height="26" as="geometry" />
        </mxCell>
        <mxCell id="-YS815tgYjxunoTYqm5n-1647" value="" style="endArrow=none;dashed=1;html=1;rounded=0;entryX=0.558;entryY=1.001;entryDx=0;entryDy=0;entryPerimeter=0;" parent="1" source="-YS815tgYjxunoTYqm5n-1654" edge="1">
          <mxGeometry width="50" height="50" relative="1" as="geometry">
            <mxPoint x="460" y="740" as="sourcePoint" />
            <mxPoint x="460" y="160" as="targetPoint" />
          </mxGeometry>
        </mxCell>
        <mxCell id="-YS815tgYjxunoTYqm5n-1648" value="" style="endArrow=none;dashed=1;html=1;rounded=0;entryX=0.558;entryY=1.001;entryDx=0;entryDy=0;entryPerimeter=0;" parent="1" source="-YS815tgYjxunoTYqm5n-1658" edge="1">
          <mxGeometry width="50" height="50" relative="1" as="geometry">
            <mxPoint x="640" y="740" as="sourcePoint" />
            <mxPoint x="640" y="160" as="targetPoint" />
          </mxGeometry>
        </mxCell>
        <mxCell id="-YS815tgYjxunoTYqm5n-1649" value="" style="endArrow=none;dashed=1;html=1;rounded=0;entryX=0.558;entryY=1.001;entryDx=0;entryDy=0;entryPerimeter=0;" parent="1" source="-YS815tgYjxunoTYqm5n-1703" edge="1">
          <mxGeometry width="50" height="50" relative="1" as="geometry">
            <mxPoint x="110" y="960" as="sourcePoint" />
            <mxPoint x="110" y="160" as="targetPoint" />
          </mxGeometry>
        </mxCell>
        <mxCell id="-YS815tgYjxunoTYqm5n-1650" value="Пользователь" style="text;align=center;fontStyle=1;verticalAlign=middle;spacingLeft=3;spacingRight=3;strokeColor=none;rotatable=0;points=[[0,0.5],[1,0.5]];portConstraint=eastwest;html=1;" parent="1" vertex="1">
          <mxGeometry x="65" y="54" width="80" height="26" as="geometry" />
        </mxCell>
        <mxCell id="-YS815tgYjxunoTYqm5n-1651" value="Получить задачу на редактирование" style="html=1;verticalAlign=bottom;startArrow=oval;startFill=1;endArrow=block;startSize=8;curved=0;rounded=0;" parent="1" target="-YS815tgYjxunoTYqm5n-1654" edge="1">
          <mxGeometry width="60" relative="1" as="geometry">
            <mxPoint x="110" y="200" as="sourcePoint" />
            <mxPoint x="440" y="200" as="targetPoint" />
          </mxGeometry>
        </mxCell>
        <mxCell id="-YS815tgYjxunoTYqm5n-1652" value="" style="endArrow=none;dashed=1;html=1;rounded=0;entryX=0.558;entryY=1.001;entryDx=0;entryDy=0;entryPerimeter=0;" parent="1" source="-YS815tgYjxunoTYqm5n-1672" edge="1">
          <mxGeometry width="50" height="50" relative="1" as="geometry">
            <mxPoint x="279.69" y="740" as="sourcePoint" />
            <mxPoint x="279.69" y="160" as="targetPoint" />
          </mxGeometry>
        </mxCell>
        <mxCell id="-YS815tgYjxunoTYqm5n-1653" value="" style="endArrow=none;dashed=1;html=1;rounded=0;entryX=0.558;entryY=1.001;entryDx=0;entryDy=0;entryPerimeter=0;" parent="1" source="-YS815tgYjxunoTYqm5n-1664" target="-YS815tgYjxunoTYqm5n-1654" edge="1">
          <mxGeometry width="50" height="50" relative="1" as="geometry">
            <mxPoint x="460" y="740" as="sourcePoint" />
            <mxPoint x="460" y="160" as="targetPoint" />
          </mxGeometry>
        </mxCell>
        <mxCell id="-YS815tgYjxunoTYqm5n-1654" value="" style="html=1;points=[[0,0,0,0,5],[0,1,0,0,-5],[1,0,0,0,5],[1,1,0,0,-5]];perimeter=orthogonalPerimeter;outlineConnect=0;targetShapes=umlLifeline;portConstraint=eastwest;newEdgeStyle={&quot;curved&quot;:0,&quot;rounded&quot;:0};" parent="1" vertex="1">
          <mxGeometry x="455" y="200" width="10" height="110" as="geometry" />
        </mxCell>
        <mxCell id="-YS815tgYjxunoTYqm5n-1655" style="edgeStyle=orthogonalEdgeStyle;rounded=0;orthogonalLoop=1;jettySize=auto;html=1;curved=0;exitX=1;exitY=0;exitDx=0;exitDy=5;exitPerimeter=0;" parent="1" source="-YS815tgYjxunoTYqm5n-1654" target="-YS815tgYjxunoTYqm5n-1654" edge="1">
          <mxGeometry relative="1" as="geometry">
            <Array as="points">
              <mxPoint x="485" y="205" />
              <mxPoint x="485" y="240" />
            </Array>
          </mxGeometry>
        </mxCell>
        <mxCell id="-YS815tgYjxunoTYqm5n-1656" value="&lt;div&gt;Формирование&lt;/div&gt;&lt;div&gt;интерфейса&lt;br&gt;&lt;/div&gt;" style="edgeLabel;html=1;align=center;verticalAlign=middle;resizable=0;points=[];" parent="-YS815tgYjxunoTYqm5n-1655" vertex="1" connectable="0">
          <mxGeometry x="-0.02" y="2" relative="1" as="geometry">
            <mxPoint x="43" y="-12" as="offset" />
          </mxGeometry>
        </mxCell>
        <mxCell id="-YS815tgYjxunoTYqm5n-1657" value="" style="endArrow=none;dashed=1;html=1;rounded=0;entryX=0.558;entryY=1.001;entryDx=0;entryDy=0;entryPerimeter=0;" parent="1" source="-YS815tgYjxunoTYqm5n-1687" target="-YS815tgYjxunoTYqm5n-1658" edge="1">
          <mxGeometry width="50" height="50" relative="1" as="geometry">
            <mxPoint x="641" y="870" as="sourcePoint" />
            <mxPoint x="640" y="160" as="targetPoint" />
          </mxGeometry>
        </mxCell>
        <mxCell id="-YS815tgYjxunoTYqm5n-1658" value="" style="html=1;points=[[0,0,0,0,5],[0,1,0,0,-5],[1,0,0,0,5],[1,1,0,0,-5]];perimeter=orthogonalPerimeter;outlineConnect=0;targetShapes=umlLifeline;portConstraint=eastwest;newEdgeStyle={&quot;curved&quot;:0,&quot;rounded&quot;:0};" parent="1" vertex="1">
          <mxGeometry x="635" y="300" width="10" height="50" as="geometry" />
        </mxCell>
        <mxCell id="-YS815tgYjxunoTYqm5n-1659" style="edgeStyle=orthogonalEdgeStyle;rounded=0;orthogonalLoop=1;jettySize=auto;html=1;curved=0;exitX=1;exitY=1;exitDx=0;exitDy=-5;exitPerimeter=0;entryX=0;entryY=0;entryDx=0;entryDy=5;entryPerimeter=0;" parent="1" source="-YS815tgYjxunoTYqm5n-1654" target="-YS815tgYjxunoTYqm5n-1658" edge="1">
          <mxGeometry relative="1" as="geometry" />
        </mxCell>
        <mxCell id="-YS815tgYjxunoTYqm5n-1660" value="Передача запроса" style="edgeLabel;html=1;align=center;verticalAlign=middle;resizable=0;points=[];" parent="-YS815tgYjxunoTYqm5n-1659" vertex="1" connectable="0">
          <mxGeometry x="-0.2309" y="1" relative="1" as="geometry">
            <mxPoint x="19" y="-14" as="offset" />
          </mxGeometry>
        </mxCell>
        <mxCell id="-YS815tgYjxunoTYqm5n-1661" style="edgeStyle=orthogonalEdgeStyle;rounded=0;orthogonalLoop=1;jettySize=auto;html=1;curved=0;exitX=1;exitY=0;exitDx=0;exitDy=5;exitPerimeter=0;entryX=1;entryY=1;entryDx=0;entryDy=-5;entryPerimeter=0;" parent="1" source="-YS815tgYjxunoTYqm5n-1658" target="-YS815tgYjxunoTYqm5n-1658" edge="1">
          <mxGeometry relative="1" as="geometry" />
        </mxCell>
        <mxCell id="-YS815tgYjxunoTYqm5n-1662" value="&lt;div&gt;Выполнение&lt;/div&gt;&lt;div&gt;запроса&lt;/div&gt;" style="edgeLabel;html=1;align=center;verticalAlign=middle;resizable=0;points=[];" parent="-YS815tgYjxunoTYqm5n-1661" vertex="1" connectable="0">
          <mxGeometry x="0.2054" y="1" relative="1" as="geometry">
            <mxPoint x="34" y="-12" as="offset" />
          </mxGeometry>
        </mxCell>
        <mxCell id="-YS815tgYjxunoTYqm5n-1663" value="" style="endArrow=none;dashed=1;html=1;rounded=0;entryX=0.558;entryY=1.001;entryDx=0;entryDy=0;entryPerimeter=0;" parent="1" source="-YS815tgYjxunoTYqm5n-1681" target="-YS815tgYjxunoTYqm5n-1664" edge="1">
          <mxGeometry width="50" height="50" relative="1" as="geometry">
            <mxPoint x="460" y="740" as="sourcePoint" />
            <mxPoint x="461" y="280" as="targetPoint" />
          </mxGeometry>
        </mxCell>
        <mxCell id="-YS815tgYjxunoTYqm5n-1664" value="" style="html=1;points=[[0,0,0,0,5],[0,1,0,0,-5],[1,0,0,0,5],[1,1,0,0,-5]];perimeter=orthogonalPerimeter;outlineConnect=0;targetShapes=umlLifeline;portConstraint=eastwest;newEdgeStyle={&quot;curved&quot;:0,&quot;rounded&quot;:0};" parent="1" vertex="1">
          <mxGeometry x="455" y="340" width="10" height="80" as="geometry" />
        </mxCell>
        <mxCell id="-YS815tgYjxunoTYqm5n-1665" value="" style="endArrow=block;dashed=1;endFill=0;endSize=12;html=1;rounded=0;entryX=1;entryY=0;entryDx=0;entryDy=5;entryPerimeter=0;" parent="1" source="-YS815tgYjxunoTYqm5n-1658" target="-YS815tgYjxunoTYqm5n-1664" edge="1">
          <mxGeometry width="160" relative="1" as="geometry">
            <mxPoint x="500" y="370" as="sourcePoint" />
            <mxPoint x="660" y="370" as="targetPoint" />
          </mxGeometry>
        </mxCell>
        <mxCell id="-YS815tgYjxunoTYqm5n-1666" value="Передача данных" style="edgeLabel;html=1;align=center;verticalAlign=middle;resizable=0;points=[];" parent="-YS815tgYjxunoTYqm5n-1665" vertex="1" connectable="0">
          <mxGeometry x="0.3918" relative="1" as="geometry">
            <mxPoint x="33" y="-15" as="offset" />
          </mxGeometry>
        </mxCell>
        <mxCell id="-YS815tgYjxunoTYqm5n-1667" style="edgeStyle=orthogonalEdgeStyle;rounded=0;orthogonalLoop=1;jettySize=auto;html=1;curved=0;exitX=1;exitY=0;exitDx=0;exitDy=5;exitPerimeter=0;entryX=1;entryY=1;entryDx=0;entryDy=-5;entryPerimeter=0;" parent="1" source="-YS815tgYjxunoTYqm5n-1664" target="-YS815tgYjxunoTYqm5n-1664" edge="1">
          <mxGeometry relative="1" as="geometry">
            <Array as="points">
              <mxPoint x="465" y="360" />
              <mxPoint x="485" y="360" />
              <mxPoint x="485" y="415" />
            </Array>
          </mxGeometry>
        </mxCell>
        <mxCell id="-YS815tgYjxunoTYqm5n-1668" value="&lt;div&gt;Обработка&lt;/div&gt;&lt;div&gt;данных&lt;/div&gt;" style="edgeLabel;html=1;align=center;verticalAlign=middle;resizable=0;points=[];" parent="-YS815tgYjxunoTYqm5n-1667" vertex="1" connectable="0">
          <mxGeometry x="0.0193" y="-1" relative="1" as="geometry">
            <mxPoint x="36" y="9" as="offset" />
          </mxGeometry>
        </mxCell>
        <mxCell id="-YS815tgYjxunoTYqm5n-1669" value="" style="endArrow=block;dashed=1;endFill=0;endSize=12;html=1;rounded=0;exitX=0;exitY=1;exitDx=0;exitDy=-5;exitPerimeter=0;entryX=1;entryY=0;entryDx=0;entryDy=5;entryPerimeter=0;" parent="1" source="-YS815tgYjxunoTYqm5n-1664" target="-YS815tgYjxunoTYqm5n-1672" edge="1">
          <mxGeometry width="160" relative="1" as="geometry">
            <mxPoint x="440" y="410" as="sourcePoint" />
            <mxPoint x="350" y="430" as="targetPoint" />
          </mxGeometry>
        </mxCell>
        <mxCell id="-YS815tgYjxunoTYqm5n-1670" value="Отображение формы" style="edgeLabel;html=1;align=center;verticalAlign=middle;resizable=0;points=[];" parent="-YS815tgYjxunoTYqm5n-1669" vertex="1" connectable="0">
          <mxGeometry x="0.3918" relative="1" as="geometry">
            <mxPoint x="33" y="-15" as="offset" />
          </mxGeometry>
        </mxCell>
        <mxCell id="-YS815tgYjxunoTYqm5n-1671" value="" style="endArrow=none;dashed=1;html=1;rounded=0;entryX=0.558;entryY=1.001;entryDx=0;entryDy=0;entryPerimeter=0;" parent="1" source="-YS815tgYjxunoTYqm5n-1678" target="-YS815tgYjxunoTYqm5n-1672" edge="1">
          <mxGeometry width="50" height="50" relative="1" as="geometry">
            <mxPoint x="279.69" y="740" as="sourcePoint" />
            <mxPoint x="279.69" y="160" as="targetPoint" />
          </mxGeometry>
        </mxCell>
        <mxCell id="-YS815tgYjxunoTYqm5n-1672" value="" style="html=1;points=[[0,0,0,0,5],[0,1,0,0,-5],[1,0,0,0,5],[1,1,0,0,-5]];perimeter=orthogonalPerimeter;outlineConnect=0;targetShapes=umlLifeline;portConstraint=eastwest;newEdgeStyle={&quot;curved&quot;:0,&quot;rounded&quot;:0};" parent="1" vertex="1">
          <mxGeometry x="275" y="410" width="10" height="80" as="geometry" />
        </mxCell>
        <mxCell id="-YS815tgYjxunoTYqm5n-1673" style="edgeStyle=orthogonalEdgeStyle;rounded=0;orthogonalLoop=1;jettySize=auto;html=1;curved=0;exitX=1;exitY=0;exitDx=0;exitDy=5;exitPerimeter=0;entryX=1;entryY=1;entryDx=0;entryDy=-5;entryPerimeter=0;" parent="1" source="-YS815tgYjxunoTYqm5n-1672" target="-YS815tgYjxunoTYqm5n-1672" edge="1">
          <mxGeometry relative="1" as="geometry">
            <Array as="points">
              <mxPoint x="285" y="430" />
              <mxPoint x="305" y="430" />
              <mxPoint x="305" y="485" />
            </Array>
          </mxGeometry>
        </mxCell>
        <mxCell id="-YS815tgYjxunoTYqm5n-1674" value="&lt;div&gt;Вывод обработанных&lt;/div&gt;&lt;div&gt;данных&lt;br&gt;&lt;/div&gt;" style="edgeLabel;html=1;align=center;verticalAlign=middle;resizable=0;points=[];" parent="-YS815tgYjxunoTYqm5n-1673" vertex="1" connectable="0">
          <mxGeometry x="0.437" y="2" relative="1" as="geometry">
            <mxPoint x="63" y="-14" as="offset" />
          </mxGeometry>
        </mxCell>
        <mxCell id="-YS815tgYjxunoTYqm5n-1675" value="" style="endArrow=none;dashed=1;html=1;rounded=0;entryX=0.558;entryY=1.001;entryDx=0;entryDy=0;entryPerimeter=0;" parent="1" target="-YS815tgYjxunoTYqm5n-1678" edge="1">
          <mxGeometry width="50" height="50" relative="1" as="geometry">
            <mxPoint x="280.5799999999999" y="790" as="sourcePoint" />
            <mxPoint x="281" y="490" as="targetPoint" />
          </mxGeometry>
        </mxCell>
        <mxCell id="-YS815tgYjxunoTYqm5n-1676" style="edgeStyle=orthogonalEdgeStyle;rounded=0;orthogonalLoop=1;jettySize=auto;html=1;curved=0;exitX=1;exitY=0;exitDx=0;exitDy=5;exitPerimeter=0;" parent="1" source="-YS815tgYjxunoTYqm5n-1678" edge="1">
          <mxGeometry relative="1" as="geometry">
            <mxPoint x="285.0952380952381" y="570" as="targetPoint" />
          </mxGeometry>
        </mxCell>
        <mxCell id="-YS815tgYjxunoTYqm5n-1677" value="&lt;div&gt;Ввод данных&lt;br&gt;&lt;/div&gt;&lt;div&gt;задачи&lt;/div&gt;" style="edgeLabel;html=1;align=center;verticalAlign=middle;resizable=0;points=[];" parent="-YS815tgYjxunoTYqm5n-1676" vertex="1" connectable="0">
          <mxGeometry x="-0.2555" y="1" relative="1" as="geometry">
            <mxPoint x="34" as="offset" />
          </mxGeometry>
        </mxCell>
        <mxCell id="-YS815tgYjxunoTYqm5n-1678" value="" style="html=1;points=[[0,0,0,0,5],[0,1,0,0,-5],[1,0,0,0,5],[1,1,0,0,-5]];perimeter=orthogonalPerimeter;outlineConnect=0;targetShapes=umlLifeline;portConstraint=eastwest;newEdgeStyle={&quot;curved&quot;:0,&quot;rounded&quot;:0};" parent="1" vertex="1">
          <mxGeometry x="275" y="510" width="10" height="80" as="geometry" />
        </mxCell>
        <mxCell id="-YS815tgYjxunoTYqm5n-1679" style="edgeStyle=orthogonalEdgeStyle;rounded=0;orthogonalLoop=1;jettySize=auto;html=1;curved=0;exitX=0;exitY=1;exitDx=0;exitDy=-5;exitPerimeter=0;entryX=0;entryY=0;entryDx=0;entryDy=5;entryPerimeter=0;" parent="1" source="-YS815tgYjxunoTYqm5n-1672" target="-YS815tgYjxunoTYqm5n-1678" edge="1">
          <mxGeometry relative="1" as="geometry">
            <Array as="points">
              <mxPoint x="250" y="485" />
              <mxPoint x="250" y="515" />
            </Array>
          </mxGeometry>
        </mxCell>
        <mxCell id="-YS815tgYjxunoTYqm5n-1680" value="" style="endArrow=none;dashed=1;html=1;rounded=0;entryX=0.558;entryY=1.001;entryDx=0;entryDy=0;entryPerimeter=0;" parent="1" source="-YS815tgYjxunoTYqm5n-1695" target="-YS815tgYjxunoTYqm5n-1681" edge="1">
          <mxGeometry width="50" height="50" relative="1" as="geometry">
            <mxPoint x="460" y="950" as="sourcePoint" />
            <mxPoint x="461" y="420" as="targetPoint" />
          </mxGeometry>
        </mxCell>
        <mxCell id="-YS815tgYjxunoTYqm5n-1681" value="" style="html=1;points=[[0,0,0,0,5],[0,1,0,0,-5],[1,0,0,0,5],[1,1,0,0,-5]];perimeter=orthogonalPerimeter;outlineConnect=0;targetShapes=umlLifeline;portConstraint=eastwest;newEdgeStyle={&quot;curved&quot;:0,&quot;rounded&quot;:0};" parent="1" vertex="1">
          <mxGeometry x="455" y="580" width="10" height="100" as="geometry" />
        </mxCell>
        <mxCell id="-YS815tgYjxunoTYqm5n-1682" style="edgeStyle=orthogonalEdgeStyle;rounded=0;orthogonalLoop=1;jettySize=auto;html=1;curved=0;exitX=1;exitY=1;exitDx=0;exitDy=-5;exitPerimeter=0;entryX=0;entryY=0;entryDx=0;entryDy=5;entryPerimeter=0;" parent="1" source="-YS815tgYjxunoTYqm5n-1678" target="-YS815tgYjxunoTYqm5n-1681" edge="1">
          <mxGeometry relative="1" as="geometry" />
        </mxCell>
        <mxCell id="-YS815tgYjxunoTYqm5n-1683" value="&lt;div&gt;Передача новых&lt;/div&gt;&lt;div&gt;данных о задаче&lt;br&gt;&lt;/div&gt;" style="edgeLabel;html=1;align=center;verticalAlign=middle;resizable=0;points=[];" parent="-YS815tgYjxunoTYqm5n-1682" vertex="1" connectable="0">
          <mxGeometry x="-0.1395" y="1" relative="1" as="geometry">
            <mxPoint x="12" y="-14" as="offset" />
          </mxGeometry>
        </mxCell>
        <mxCell id="-YS815tgYjxunoTYqm5n-1684" style="edgeStyle=orthogonalEdgeStyle;rounded=0;orthogonalLoop=1;jettySize=auto;html=1;curved=0;exitX=1;exitY=0;exitDx=0;exitDy=5;exitPerimeter=0;" parent="1" edge="1" target="-YS815tgYjxunoTYqm5n-1681">
          <mxGeometry relative="1" as="geometry">
            <mxPoint x="467.20000000000005" y="621.66" as="targetPoint" />
            <Array as="points">
              <mxPoint x="465" y="590" />
              <mxPoint x="485" y="590" />
              <mxPoint x="485" y="625" />
            </Array>
            <mxPoint x="465" y="580" as="sourcePoint" />
          </mxGeometry>
        </mxCell>
        <mxCell id="-YS815tgYjxunoTYqm5n-1685" value="&lt;div&gt;Валидация&lt;/div&gt;&lt;div&gt;данных&lt;/div&gt;" style="edgeLabel;html=1;align=center;verticalAlign=middle;resizable=0;points=[];" parent="-YS815tgYjxunoTYqm5n-1684" vertex="1" connectable="0">
          <mxGeometry x="-0.3455" y="2" relative="1" as="geometry">
            <mxPoint x="33" as="offset" />
          </mxGeometry>
        </mxCell>
        <mxCell id="-YS815tgYjxunoTYqm5n-1686" value="" style="endArrow=none;dashed=1;html=1;rounded=0;entryX=0.558;entryY=1.001;entryDx=0;entryDy=0;entryPerimeter=0;" parent="1" target="-YS815tgYjxunoTYqm5n-1687" edge="1">
          <mxGeometry width="50" height="50" relative="1" as="geometry">
            <mxPoint x="641" y="1210" as="sourcePoint" />
            <mxPoint x="641" y="350" as="targetPoint" />
          </mxGeometry>
        </mxCell>
        <mxCell id="-YS815tgYjxunoTYqm5n-1687" value="" style="html=1;points=[[0,0,0,0,5],[0,1,0,0,-5],[1,0,0,0,5],[1,1,0,0,-5]];perimeter=orthogonalPerimeter;outlineConnect=0;targetShapes=umlLifeline;portConstraint=eastwest;newEdgeStyle={&quot;curved&quot;:0,&quot;rounded&quot;:0};" parent="1" vertex="1">
          <mxGeometry x="635" y="670" width="10" height="60" as="geometry" />
        </mxCell>
        <mxCell id="-YS815tgYjxunoTYqm5n-1688" style="edgeStyle=orthogonalEdgeStyle;rounded=0;orthogonalLoop=1;jettySize=auto;html=1;curved=0;exitX=1;exitY=1;exitDx=0;exitDy=-5;exitPerimeter=0;entryX=0;entryY=0;entryDx=0;entryDy=5;entryPerimeter=0;" parent="1" source="-YS815tgYjxunoTYqm5n-1681" target="-YS815tgYjxunoTYqm5n-1687" edge="1">
          <mxGeometry relative="1" as="geometry" />
        </mxCell>
        <mxCell id="-YS815tgYjxunoTYqm5n-1689" value="Передача запроса" style="edgeLabel;html=1;align=center;verticalAlign=middle;resizable=0;points=[];" parent="-YS815tgYjxunoTYqm5n-1688" vertex="1" connectable="0">
          <mxGeometry x="-0.1854" y="-2" relative="1" as="geometry">
            <mxPoint x="16" y="-17" as="offset" />
          </mxGeometry>
        </mxCell>
        <mxCell id="-YS815tgYjxunoTYqm5n-1690" style="edgeStyle=orthogonalEdgeStyle;rounded=0;orthogonalLoop=1;jettySize=auto;html=1;curved=0;exitX=1;exitY=0;exitDx=0;exitDy=5;exitPerimeter=0;entryX=1;entryY=1;entryDx=0;entryDy=-5;entryPerimeter=0;" parent="1" source="-YS815tgYjxunoTYqm5n-1687" target="-YS815tgYjxunoTYqm5n-1687" edge="1">
          <mxGeometry relative="1" as="geometry" />
        </mxCell>
        <mxCell id="-YS815tgYjxunoTYqm5n-1691" value="&lt;div&gt;Обновление&lt;/div&gt;&lt;div&gt;данных&lt;br&gt;&lt;/div&gt;" style="edgeLabel;html=1;align=center;verticalAlign=middle;resizable=0;points=[];" parent="-YS815tgYjxunoTYqm5n-1690" vertex="1" connectable="0">
          <mxGeometry x="-0.4234" y="2" relative="1" as="geometry">
            <mxPoint x="43" y="24" as="offset" />
          </mxGeometry>
        </mxCell>
        <mxCell id="-YS815tgYjxunoTYqm5n-1692" value="" style="endArrow=none;dashed=1;html=1;rounded=0;entryX=0.558;entryY=1.001;entryDx=0;entryDy=0;entryPerimeter=0;" parent="1" source="-YS815tgYjxunoTYqm5n-1710" target="-YS815tgYjxunoTYqm5n-1695" edge="1">
          <mxGeometry width="50" height="50" relative="1" as="geometry">
            <mxPoint x="461" y="1200" as="sourcePoint" />
            <mxPoint x="461" y="660" as="targetPoint" />
          </mxGeometry>
        </mxCell>
        <mxCell id="-YS815tgYjxunoTYqm5n-1693" style="edgeStyle=orthogonalEdgeStyle;rounded=0;orthogonalLoop=1;jettySize=auto;html=1;curved=0;exitX=1;exitY=0;exitDx=0;exitDy=5;exitPerimeter=0;" parent="1" source="-YS815tgYjxunoTYqm5n-1695" target="-YS815tgYjxunoTYqm5n-1695" edge="1">
          <mxGeometry relative="1" as="geometry">
            <mxPoint x="465.20000000000005" y="790" as="targetPoint" />
            <Array as="points">
              <mxPoint x="465" y="740" />
              <mxPoint x="485" y="740" />
              <mxPoint x="485" y="791" />
            </Array>
          </mxGeometry>
        </mxCell>
        <mxCell id="-YS815tgYjxunoTYqm5n-1694" value="&lt;div&gt;Обработка&lt;/div&gt;&lt;div&gt;данных&lt;br&gt;&lt;/div&gt;" style="edgeLabel;html=1;align=center;verticalAlign=middle;resizable=0;points=[];" parent="-YS815tgYjxunoTYqm5n-1693" vertex="1" connectable="0">
          <mxGeometry x="-0.1124" relative="1" as="geometry">
            <mxPoint x="35" y="8" as="offset" />
          </mxGeometry>
        </mxCell>
        <mxCell id="-YS815tgYjxunoTYqm5n-1695" value="" style="html=1;points=[[0,0,0,0,5],[0,1,0,0,-5],[1,0,0,0,5],[1,1,0,0,-5]];perimeter=orthogonalPerimeter;outlineConnect=0;targetShapes=umlLifeline;portConstraint=eastwest;newEdgeStyle={&quot;curved&quot;:0,&quot;rounded&quot;:0};" parent="1" vertex="1">
          <mxGeometry x="455" y="720" width="10" height="80" as="geometry" />
        </mxCell>
        <mxCell id="-YS815tgYjxunoTYqm5n-1696" value="" style="endArrow=block;dashed=1;endFill=0;endSize=12;html=1;rounded=0;entryX=1;entryY=0;entryDx=0;entryDy=5;entryPerimeter=0;exitX=0;exitY=1;exitDx=0;exitDy=-5;exitPerimeter=0;" parent="1" source="-YS815tgYjxunoTYqm5n-1687" target="-YS815tgYjxunoTYqm5n-1695" edge="1">
          <mxGeometry width="160" relative="1" as="geometry">
            <mxPoint x="635" y="759.71" as="sourcePoint" />
            <mxPoint x="465" y="759.71" as="targetPoint" />
          </mxGeometry>
        </mxCell>
        <mxCell id="-YS815tgYjxunoTYqm5n-1697" value="&lt;div&gt;Обновление&lt;/div&gt;&lt;div&gt;информации&lt;br&gt;&lt;/div&gt;" style="edgeLabel;html=1;align=center;verticalAlign=middle;resizable=0;points=[];" parent="-YS815tgYjxunoTYqm5n-1696" vertex="1" connectable="0">
          <mxGeometry x="0.3918" relative="1" as="geometry">
            <mxPoint x="33" y="-15" as="offset" />
          </mxGeometry>
        </mxCell>
        <mxCell id="-YS815tgYjxunoTYqm5n-1698" value="" style="endArrow=none;dashed=1;html=1;rounded=0;" parent="1" edge="1">
          <mxGeometry width="50" height="50" relative="1" as="geometry">
            <mxPoint x="280.5799999999999" y="900" as="sourcePoint" />
            <mxPoint x="280" y="790" as="targetPoint" />
          </mxGeometry>
        </mxCell>
        <mxCell id="-YS815tgYjxunoTYqm5n-1700" value="" style="endArrow=block;dashed=1;endFill=0;endSize=12;html=1;rounded=0;entryX=1;entryY=0;entryDx=0;entryDy=5;entryPerimeter=0;exitX=0;exitY=1;exitDx=0;exitDy=-5;exitPerimeter=0;" parent="1" source="-YS815tgYjxunoTYqm5n-1695" target="-YS815tgYjxunoTYqm5n-1703" edge="1">
          <mxGeometry width="160" relative="1" as="geometry">
            <mxPoint x="490" y="790" as="sourcePoint" />
            <mxPoint x="285" y="795" as="targetPoint" />
          </mxGeometry>
        </mxCell>
        <mxCell id="3DV8TFoDORNND812AjDE-4" value="&lt;div&gt;Сообщение об успешном&lt;/div&gt;&lt;div&gt;изменении&lt;/div&gt;" style="edgeLabel;html=1;align=center;verticalAlign=middle;resizable=0;points=[];" parent="-YS815tgYjxunoTYqm5n-1700" vertex="1" connectable="0">
          <mxGeometry x="-0.3941" y="1" relative="1" as="geometry">
            <mxPoint x="18" y="-16" as="offset" />
          </mxGeometry>
        </mxCell>
        <mxCell id="-YS815tgYjxunoTYqm5n-1702" value="" style="endArrow=none;dashed=1;html=1;rounded=0;entryX=0.558;entryY=1.001;entryDx=0;entryDy=0;entryPerimeter=0;" parent="1" source="-YS815tgYjxunoTYqm5n-1732" target="-YS815tgYjxunoTYqm5n-1703" edge="1">
          <mxGeometry width="50" height="50" relative="1" as="geometry">
            <mxPoint x="111" y="1200" as="sourcePoint" />
            <mxPoint x="110" y="160" as="targetPoint" />
          </mxGeometry>
        </mxCell>
        <mxCell id="-YS815tgYjxunoTYqm5n-1703" value="" style="html=1;points=[[0,0,0,0,5],[0,1,0,0,-5],[1,0,0,0,5],[1,1,0,0,-5]];perimeter=orthogonalPerimeter;outlineConnect=0;targetShapes=umlLifeline;portConstraint=eastwest;newEdgeStyle={&quot;curved&quot;:0,&quot;rounded&quot;:0};" parent="1" vertex="1">
          <mxGeometry x="105" y="790" width="10" height="40" as="geometry" />
        </mxCell>
        <mxCell id="-YS815tgYjxunoTYqm5n-1706" value="alternative" style="shape=umlFrame;whiteSpace=wrap;html=1;pointerEvents=0;" parent="1" vertex="1">
          <mxGeometry x="34" y="620" width="760" height="370" as="geometry" />
        </mxCell>
        <mxCell id="-YS815tgYjxunoTYqm5n-1707" value="" style="endArrow=none;dashed=1;html=1;rounded=0;entryX=0.902;entryY=1.068;entryDx=0;entryDy=0;entryPerimeter=0;" parent="1" target="-YS815tgYjxunoTYqm5n-1775" edge="1">
          <mxGeometry width="50" height="50" relative="1" as="geometry">
            <mxPoint x="281" y="1220" as="sourcePoint" />
            <mxPoint x="280.5799999999999" y="980.0799999999999" as="targetPoint" />
          </mxGeometry>
        </mxCell>
        <mxCell id="-YS815tgYjxunoTYqm5n-1709" value="" style="endArrow=none;dashed=1;html=1;rounded=0;entryX=0.558;entryY=1.001;entryDx=0;entryDy=0;entryPerimeter=0;" parent="1" target="-YS815tgYjxunoTYqm5n-1710" edge="1">
          <mxGeometry width="50" height="50" relative="1" as="geometry">
            <mxPoint x="461" y="1210" as="sourcePoint" />
            <mxPoint x="461" y="800" as="targetPoint" />
          </mxGeometry>
        </mxCell>
        <mxCell id="-YS815tgYjxunoTYqm5n-1710" value="" style="html=1;points=[[0,0,0,0,5],[0,1,0,0,-5],[1,0,0,0,5],[1,1,0,0,-5]];perimeter=orthogonalPerimeter;outlineConnect=0;targetShapes=umlLifeline;portConstraint=eastwest;newEdgeStyle={&quot;curved&quot;:0,&quot;rounded&quot;:0};" parent="1" vertex="1">
          <mxGeometry x="455" y="870" width="10" height="50" as="geometry" />
        </mxCell>
        <mxCell id="-YS815tgYjxunoTYqm5n-1711" value="" style="endArrow=block;dashed=1;endFill=0;endSize=12;html=1;rounded=0;entryX=1;entryY=0;entryDx=0;entryDy=5;entryPerimeter=0;exitX=0;exitY=1;exitDx=0;exitDy=-5;exitPerimeter=0;" parent="1" source="-YS815tgYjxunoTYqm5n-1710" target="-YS815tgYjxunoTYqm5n-1732" edge="1">
          <mxGeometry width="160" relative="1" as="geometry">
            <mxPoint x="465" y="805" as="sourcePoint" />
            <mxPoint x="285" y="905" as="targetPoint" />
          </mxGeometry>
        </mxCell>
        <mxCell id="-YS815tgYjxunoTYqm5n-1712" value="&lt;div&gt;Сообщение с описанием&lt;/div&gt;&lt;div&gt;проблемы&lt;br&gt;&lt;/div&gt;" style="edgeLabel;html=1;align=center;verticalAlign=middle;resizable=0;points=[];" parent="-YS815tgYjxunoTYqm5n-1711" vertex="1" connectable="0">
          <mxGeometry x="0.3918" relative="1" as="geometry">
            <mxPoint x="152" y="-15" as="offset" />
          </mxGeometry>
        </mxCell>
        <mxCell id="-YS815tgYjxunoTYqm5n-1773" value="" style="endArrow=none;html=1;rounded=0;exitX=-0.002;exitY=0.556;exitDx=0;exitDy=0;exitPerimeter=0;entryX=1.002;entryY=0.558;entryDx=0;entryDy=0;entryPerimeter=0;" parent="1" edge="1">
          <mxGeometry width="50" height="50" relative="1" as="geometry">
            <mxPoint x="30.96000000000002" y="869.9999999999998" as="sourcePoint" />
            <mxPoint x="794.0000000000002" y="870.7399999999998" as="targetPoint" />
          </mxGeometry>
        </mxCell>
        <mxCell id="-YS815tgYjxunoTYqm5n-1774" value="(Данные прошли валидацию)" style="text;strokeColor=none;fillColor=none;align=left;verticalAlign=middle;spacingLeft=4;spacingRight=4;overflow=hidden;points=[[0,0.5],[1,0.5]];portConstraint=eastwest;rotatable=0;whiteSpace=wrap;html=1;" parent="1" vertex="1">
          <mxGeometry x="105" y="620" width="180" height="30" as="geometry" />
        </mxCell>
        <mxCell id="-YS815tgYjxunoTYqm5n-1775" value="(Данные не прошли валидацию)" style="text;strokeColor=none;fillColor=none;align=left;verticalAlign=middle;spacingLeft=4;spacingRight=4;overflow=hidden;points=[[0,0.5],[1,0.5]];portConstraint=eastwest;rotatable=0;whiteSpace=wrap;html=1;" parent="1" vertex="1">
          <mxGeometry x="105" y="870" width="195" height="30" as="geometry" />
        </mxCell>
        <mxCell id="bdSp0GzWLAqEPZMk64aj-1" value="" style="shape=umlActor;verticalLabelPosition=bottom;verticalAlign=top;html=1;" parent="1" vertex="1">
          <mxGeometry x="916.52" y="100" width="30" height="60" as="geometry" />
        </mxCell>
        <mxCell id="bdSp0GzWLAqEPZMk64aj-2" value="" style="ellipse;shape=umlControl;whiteSpace=wrap;html=1;" parent="1" vertex="1">
          <mxGeometry x="1246.52" y="80" width="70" height="80" as="geometry" />
        </mxCell>
        <mxCell id="bdSp0GzWLAqEPZMk64aj-3" value="" style="shape=umlBoundary;whiteSpace=wrap;html=1;" parent="1" vertex="1">
          <mxGeometry x="1056.52" y="90" width="80" height="70" as="geometry" />
        </mxCell>
        <mxCell id="bdSp0GzWLAqEPZMk64aj-4" value="" style="ellipse;shape=umlEntity;whiteSpace=wrap;html=1;" parent="1" vertex="1">
          <mxGeometry x="1426.52" y="90" width="70" height="70" as="geometry" />
        </mxCell>
        <mxCell id="bdSp0GzWLAqEPZMk64aj-5" value="TaskActivity" style="text;align=center;fontStyle=1;verticalAlign=middle;spacingLeft=3;spacingRight=3;strokeColor=none;rotatable=0;points=[[0,0.5],[1,0.5]];portConstraint=eastwest;html=1;" parent="1" vertex="1">
          <mxGeometry x="1066.52" y="54" width="80" height="26" as="geometry" />
        </mxCell>
        <mxCell id="bdSp0GzWLAqEPZMk64aj-6" value="TaskController" style="text;align=center;fontStyle=1;verticalAlign=middle;spacingLeft=3;spacingRight=3;strokeColor=none;rotatable=0;points=[[0,0.5],[1,0.5]];portConstraint=eastwest;html=1;" parent="1" vertex="1">
          <mxGeometry x="1240.52" y="54" width="80" height="26" as="geometry" />
        </mxCell>
        <mxCell id="bdSp0GzWLAqEPZMk64aj-7" value="TaskService" style="text;align=center;fontStyle=1;verticalAlign=middle;spacingLeft=3;spacingRight=3;strokeColor=none;rotatable=0;points=[[0,0.5],[1,0.5]];portConstraint=eastwest;html=1;" parent="1" vertex="1">
          <mxGeometry x="1421.52" y="54" width="80" height="26" as="geometry" />
        </mxCell>
        <mxCell id="bdSp0GzWLAqEPZMk64aj-8" value="" style="endArrow=none;dashed=1;html=1;rounded=0;entryX=0.558;entryY=1.001;entryDx=0;entryDy=0;entryPerimeter=0;" parent="1" source="bdSp0GzWLAqEPZMk64aj-15" edge="1">
          <mxGeometry width="50" height="50" relative="1" as="geometry">
            <mxPoint x="1286.52" y="740" as="sourcePoint" />
            <mxPoint x="1286.52" y="160" as="targetPoint" />
          </mxGeometry>
        </mxCell>
        <mxCell id="bdSp0GzWLAqEPZMk64aj-9" value="" style="endArrow=none;dashed=1;html=1;rounded=0;entryX=0.558;entryY=1.001;entryDx=0;entryDy=0;entryPerimeter=0;" parent="1" source="bdSp0GzWLAqEPZMk64aj-19" edge="1">
          <mxGeometry width="50" height="50" relative="1" as="geometry">
            <mxPoint x="1466.52" y="740" as="sourcePoint" />
            <mxPoint x="1466.52" y="160" as="targetPoint" />
          </mxGeometry>
        </mxCell>
        <mxCell id="bdSp0GzWLAqEPZMk64aj-10" value="" style="endArrow=none;dashed=1;html=1;rounded=0;entryX=0.558;entryY=1.001;entryDx=0;entryDy=0;entryPerimeter=0;" parent="1" source="bdSp0GzWLAqEPZMk64aj-64" edge="1">
          <mxGeometry width="50" height="50" relative="1" as="geometry">
            <mxPoint x="936.52" y="960" as="sourcePoint" />
            <mxPoint x="936.52" y="160" as="targetPoint" />
          </mxGeometry>
        </mxCell>
        <mxCell id="bdSp0GzWLAqEPZMk64aj-11" value="User" style="text;align=center;fontStyle=1;verticalAlign=middle;spacingLeft=3;spacingRight=3;strokeColor=none;rotatable=0;points=[[0,0.5],[1,0.5]];portConstraint=eastwest;html=1;" parent="1" vertex="1">
          <mxGeometry x="891.52" y="54" width="80" height="26" as="geometry" />
        </mxCell>
        <mxCell id="bdSp0GzWLAqEPZMk64aj-12" value="navigator.navigate(TASK, taskId)" style="html=1;verticalAlign=bottom;startArrow=oval;startFill=1;endArrow=block;startSize=8;curved=0;rounded=0;" parent="1" target="bdSp0GzWLAqEPZMk64aj-15" edge="1">
          <mxGeometry width="60" relative="1" as="geometry">
            <mxPoint x="936.52" y="200" as="sourcePoint" />
            <mxPoint x="1266.52" y="200" as="targetPoint" />
          </mxGeometry>
        </mxCell>
        <mxCell id="bdSp0GzWLAqEPZMk64aj-13" value="" style="endArrow=none;dashed=1;html=1;rounded=0;entryX=0.558;entryY=1.001;entryDx=0;entryDy=0;entryPerimeter=0;" parent="1" source="bdSp0GzWLAqEPZMk64aj-33" edge="1">
          <mxGeometry width="50" height="50" relative="1" as="geometry">
            <mxPoint x="1106.21" y="740" as="sourcePoint" />
            <mxPoint x="1106.21" y="160" as="targetPoint" />
          </mxGeometry>
        </mxCell>
        <mxCell id="bdSp0GzWLAqEPZMk64aj-14" value="" style="endArrow=none;dashed=1;html=1;rounded=0;entryX=0.558;entryY=1.001;entryDx=0;entryDy=0;entryPerimeter=0;" parent="1" source="bdSp0GzWLAqEPZMk64aj-25" target="bdSp0GzWLAqEPZMk64aj-15" edge="1">
          <mxGeometry width="50" height="50" relative="1" as="geometry">
            <mxPoint x="1286.52" y="740" as="sourcePoint" />
            <mxPoint x="1286.52" y="160" as="targetPoint" />
          </mxGeometry>
        </mxCell>
        <mxCell id="bdSp0GzWLAqEPZMk64aj-15" value="" style="html=1;points=[[0,0,0,0,5],[0,1,0,0,-5],[1,0,0,0,5],[1,1,0,0,-5]];perimeter=orthogonalPerimeter;outlineConnect=0;targetShapes=umlLifeline;portConstraint=eastwest;newEdgeStyle={&quot;curved&quot;:0,&quot;rounded&quot;:0};" parent="1" vertex="1">
          <mxGeometry x="1281.52" y="200" width="10" height="80" as="geometry" />
        </mxCell>
        <mxCell id="bdSp0GzWLAqEPZMk64aj-16" style="edgeStyle=orthogonalEdgeStyle;rounded=0;orthogonalLoop=1;jettySize=auto;html=1;curved=0;exitX=1;exitY=0;exitDx=0;exitDy=5;exitPerimeter=0;" parent="1" source="bdSp0GzWLAqEPZMk64aj-15" target="bdSp0GzWLAqEPZMk64aj-15" edge="1">
          <mxGeometry relative="1" as="geometry" />
        </mxCell>
        <mxCell id="bdSp0GzWLAqEPZMk64aj-17" value="TaskScreen(taskId)" style="edgeLabel;html=1;align=center;verticalAlign=middle;resizable=0;points=[];" parent="bdSp0GzWLAqEPZMk64aj-16" vertex="1" connectable="0">
          <mxGeometry x="-0.02" y="2" relative="1" as="geometry">
            <mxPoint x="43" as="offset" />
          </mxGeometry>
        </mxCell>
        <mxCell id="bdSp0GzWLAqEPZMk64aj-18" value="" style="endArrow=none;dashed=1;html=1;rounded=0;entryX=0.558;entryY=1.001;entryDx=0;entryDy=0;entryPerimeter=0;" parent="1" source="bdSp0GzWLAqEPZMk64aj-48" target="bdSp0GzWLAqEPZMk64aj-19" edge="1">
          <mxGeometry width="50" height="50" relative="1" as="geometry">
            <mxPoint x="1467.52" y="870" as="sourcePoint" />
            <mxPoint x="1466.52" y="160" as="targetPoint" />
          </mxGeometry>
        </mxCell>
        <mxCell id="bdSp0GzWLAqEPZMk64aj-19" value="" style="html=1;points=[[0,0,0,0,5],[0,1,0,0,-5],[1,0,0,0,5],[1,1,0,0,-5]];perimeter=orthogonalPerimeter;outlineConnect=0;targetShapes=umlLifeline;portConstraint=eastwest;newEdgeStyle={&quot;curved&quot;:0,&quot;rounded&quot;:0};" parent="1" vertex="1">
          <mxGeometry x="1461.52" y="270" width="10" height="80" as="geometry" />
        </mxCell>
        <mxCell id="bdSp0GzWLAqEPZMk64aj-20" style="edgeStyle=orthogonalEdgeStyle;rounded=0;orthogonalLoop=1;jettySize=auto;html=1;curved=0;exitX=1;exitY=1;exitDx=0;exitDy=-5;exitPerimeter=0;entryX=0;entryY=0;entryDx=0;entryDy=5;entryPerimeter=0;" parent="1" source="bdSp0GzWLAqEPZMk64aj-15" target="bdSp0GzWLAqEPZMk64aj-19" edge="1">
          <mxGeometry relative="1" as="geometry" />
        </mxCell>
        <mxCell id="bdSp0GzWLAqEPZMk64aj-21" value="getTask(taskId)" style="edgeLabel;html=1;align=center;verticalAlign=middle;resizable=0;points=[];" parent="bdSp0GzWLAqEPZMk64aj-20" vertex="1" connectable="0">
          <mxGeometry x="-0.2309" y="1" relative="1" as="geometry">
            <mxPoint x="19" y="-14" as="offset" />
          </mxGeometry>
        </mxCell>
        <mxCell id="bdSp0GzWLAqEPZMk64aj-22" style="edgeStyle=orthogonalEdgeStyle;rounded=0;orthogonalLoop=1;jettySize=auto;html=1;curved=0;exitX=1;exitY=0;exitDx=0;exitDy=5;exitPerimeter=0;entryX=1;entryY=1;entryDx=0;entryDy=-5;entryPerimeter=0;" parent="1" source="bdSp0GzWLAqEPZMk64aj-19" target="bdSp0GzWLAqEPZMk64aj-19" edge="1">
          <mxGeometry relative="1" as="geometry" />
        </mxCell>
        <mxCell id="bdSp0GzWLAqEPZMk64aj-23" value="taskRepository.get(taskId)" style="edgeLabel;html=1;align=center;verticalAlign=middle;resizable=0;points=[];" parent="bdSp0GzWLAqEPZMk64aj-22" vertex="1" connectable="0">
          <mxGeometry x="0.2054" y="1" relative="1" as="geometry">
            <mxPoint x="67" y="-11" as="offset" />
          </mxGeometry>
        </mxCell>
        <mxCell id="bdSp0GzWLAqEPZMk64aj-24" value="" style="endArrow=none;dashed=1;html=1;rounded=0;entryX=0.558;entryY=1.001;entryDx=0;entryDy=0;entryPerimeter=0;" parent="1" source="bdSp0GzWLAqEPZMk64aj-42" target="bdSp0GzWLAqEPZMk64aj-25" edge="1">
          <mxGeometry width="50" height="50" relative="1" as="geometry">
            <mxPoint x="1286.52" y="740" as="sourcePoint" />
            <mxPoint x="1287.52" y="280" as="targetPoint" />
          </mxGeometry>
        </mxCell>
        <mxCell id="bdSp0GzWLAqEPZMk64aj-25" value="" style="html=1;points=[[0,0,0,0,5],[0,1,0,0,-5],[1,0,0,0,5],[1,1,0,0,-5]];perimeter=orthogonalPerimeter;outlineConnect=0;targetShapes=umlLifeline;portConstraint=eastwest;newEdgeStyle={&quot;curved&quot;:0,&quot;rounded&quot;:0};" parent="1" vertex="1">
          <mxGeometry x="1281.52" y="340" width="10" height="80" as="geometry" />
        </mxCell>
        <mxCell id="bdSp0GzWLAqEPZMk64aj-26" value="" style="endArrow=block;dashed=1;endFill=0;endSize=12;html=1;rounded=0;entryX=1;entryY=0;entryDx=0;entryDy=5;entryPerimeter=0;" parent="1" source="bdSp0GzWLAqEPZMk64aj-19" target="bdSp0GzWLAqEPZMk64aj-25" edge="1">
          <mxGeometry width="160" relative="1" as="geometry">
            <mxPoint x="1326.52" y="370" as="sourcePoint" />
            <mxPoint x="1486.52" y="370" as="targetPoint" />
          </mxGeometry>
        </mxCell>
        <mxCell id="bdSp0GzWLAqEPZMk64aj-27" value="Task(task)" style="edgeLabel;html=1;align=center;verticalAlign=middle;resizable=0;points=[];" parent="bdSp0GzWLAqEPZMk64aj-26" vertex="1" connectable="0">
          <mxGeometry x="0.3918" relative="1" as="geometry">
            <mxPoint x="33" y="-15" as="offset" />
          </mxGeometry>
        </mxCell>
        <mxCell id="bdSp0GzWLAqEPZMk64aj-28" style="edgeStyle=orthogonalEdgeStyle;rounded=0;orthogonalLoop=1;jettySize=auto;html=1;curved=0;exitX=1;exitY=0;exitDx=0;exitDy=5;exitPerimeter=0;entryX=1;entryY=1;entryDx=0;entryDy=-5;entryPerimeter=0;" parent="1" source="bdSp0GzWLAqEPZMk64aj-25" target="bdSp0GzWLAqEPZMk64aj-25" edge="1">
          <mxGeometry relative="1" as="geometry">
            <Array as="points">
              <mxPoint x="1291.52" y="360" />
              <mxPoint x="1311.52" y="360" />
              <mxPoint x="1311.52" y="415" />
            </Array>
          </mxGeometry>
        </mxCell>
        <mxCell id="bdSp0GzWLAqEPZMk64aj-29" value="handle(task)" style="edgeLabel;html=1;align=center;verticalAlign=middle;resizable=0;points=[];" parent="bdSp0GzWLAqEPZMk64aj-28" vertex="1" connectable="0">
          <mxGeometry x="0.0193" y="-1" relative="1" as="geometry">
            <mxPoint x="36" y="9" as="offset" />
          </mxGeometry>
        </mxCell>
        <mxCell id="bdSp0GzWLAqEPZMk64aj-30" value="" style="endArrow=block;dashed=1;endFill=0;endSize=12;html=1;rounded=0;exitX=0;exitY=1;exitDx=0;exitDy=-5;exitPerimeter=0;entryX=1;entryY=0;entryDx=0;entryDy=5;entryPerimeter=0;" parent="1" source="bdSp0GzWLAqEPZMk64aj-25" target="bdSp0GzWLAqEPZMk64aj-33" edge="1">
          <mxGeometry width="160" relative="1" as="geometry">
            <mxPoint x="1266.52" y="410" as="sourcePoint" />
            <mxPoint x="1176.52" y="430" as="targetPoint" />
          </mxGeometry>
        </mxCell>
        <mxCell id="bdSp0GzWLAqEPZMk64aj-31" value="bindTaskToTaskScreen(task)" style="edgeLabel;html=1;align=center;verticalAlign=middle;resizable=0;points=[];" parent="bdSp0GzWLAqEPZMk64aj-30" vertex="1" connectable="0">
          <mxGeometry x="0.3918" relative="1" as="geometry">
            <mxPoint x="33" y="-15" as="offset" />
          </mxGeometry>
        </mxCell>
        <mxCell id="bdSp0GzWLAqEPZMk64aj-32" value="" style="endArrow=none;dashed=1;html=1;rounded=0;entryX=0.558;entryY=1.001;entryDx=0;entryDy=0;entryPerimeter=0;" parent="1" source="bdSp0GzWLAqEPZMk64aj-39" target="bdSp0GzWLAqEPZMk64aj-33" edge="1">
          <mxGeometry width="50" height="50" relative="1" as="geometry">
            <mxPoint x="1106.21" y="740" as="sourcePoint" />
            <mxPoint x="1106.21" y="160" as="targetPoint" />
          </mxGeometry>
        </mxCell>
        <mxCell id="bdSp0GzWLAqEPZMk64aj-33" value="" style="html=1;points=[[0,0,0,0,5],[0,1,0,0,-5],[1,0,0,0,5],[1,1,0,0,-5]];perimeter=orthogonalPerimeter;outlineConnect=0;targetShapes=umlLifeline;portConstraint=eastwest;newEdgeStyle={&quot;curved&quot;:0,&quot;rounded&quot;:0};" parent="1" vertex="1">
          <mxGeometry x="1101.52" y="410" width="10" height="80" as="geometry" />
        </mxCell>
        <mxCell id="bdSp0GzWLAqEPZMk64aj-34" style="edgeStyle=orthogonalEdgeStyle;rounded=0;orthogonalLoop=1;jettySize=auto;html=1;curved=0;exitX=1;exitY=0;exitDx=0;exitDy=5;exitPerimeter=0;entryX=1;entryY=1;entryDx=0;entryDy=-5;entryPerimeter=0;" parent="1" source="bdSp0GzWLAqEPZMk64aj-33" target="bdSp0GzWLAqEPZMk64aj-33" edge="1">
          <mxGeometry relative="1" as="geometry">
            <Array as="points">
              <mxPoint x="1111.52" y="430" />
              <mxPoint x="1131.52" y="430" />
              <mxPoint x="1131.52" y="485" />
            </Array>
          </mxGeometry>
        </mxCell>
        <mxCell id="bdSp0GzWLAqEPZMk64aj-35" value="TaskViewScreen(task)" style="edgeLabel;html=1;align=center;verticalAlign=middle;resizable=0;points=[];" parent="bdSp0GzWLAqEPZMk64aj-34" vertex="1" connectable="0">
          <mxGeometry x="0.437" y="2" relative="1" as="geometry">
            <mxPoint x="56" y="-14" as="offset" />
          </mxGeometry>
        </mxCell>
        <mxCell id="bdSp0GzWLAqEPZMk64aj-36" value="" style="endArrow=none;dashed=1;html=1;rounded=0;entryX=0.558;entryY=1.001;entryDx=0;entryDy=0;entryPerimeter=0;" parent="1" target="bdSp0GzWLAqEPZMk64aj-39" edge="1">
          <mxGeometry width="50" height="50" relative="1" as="geometry">
            <mxPoint x="1107.1" y="790.0000000000002" as="sourcePoint" />
            <mxPoint x="1107.52" y="490" as="targetPoint" />
          </mxGeometry>
        </mxCell>
        <mxCell id="bdSp0GzWLAqEPZMk64aj-37" style="edgeStyle=orthogonalEdgeStyle;rounded=0;orthogonalLoop=1;jettySize=auto;html=1;curved=0;exitX=1;exitY=0;exitDx=0;exitDy=5;exitPerimeter=0;" parent="1" source="bdSp0GzWLAqEPZMk64aj-39" edge="1">
          <mxGeometry relative="1" as="geometry">
            <mxPoint x="1111.615238095238" y="570" as="targetPoint" />
          </mxGeometry>
        </mxCell>
        <mxCell id="bdSp0GzWLAqEPZMk64aj-38" value="placeholder(task)" style="edgeLabel;html=1;align=center;verticalAlign=middle;resizable=0;points=[];" parent="bdSp0GzWLAqEPZMk64aj-37" vertex="1" connectable="0">
          <mxGeometry x="-0.2555" y="1" relative="1" as="geometry">
            <mxPoint x="47" as="offset" />
          </mxGeometry>
        </mxCell>
        <mxCell id="bdSp0GzWLAqEPZMk64aj-39" value="" style="html=1;points=[[0,0,0,0,5],[0,1,0,0,-5],[1,0,0,0,5],[1,1,0,0,-5]];perimeter=orthogonalPerimeter;outlineConnect=0;targetShapes=umlLifeline;portConstraint=eastwest;newEdgeStyle={&quot;curved&quot;:0,&quot;rounded&quot;:0};" parent="1" vertex="1">
          <mxGeometry x="1101.52" y="510" width="10" height="80" as="geometry" />
        </mxCell>
        <mxCell id="bdSp0GzWLAqEPZMk64aj-40" style="edgeStyle=orthogonalEdgeStyle;rounded=0;orthogonalLoop=1;jettySize=auto;html=1;curved=0;exitX=0;exitY=1;exitDx=0;exitDy=-5;exitPerimeter=0;entryX=0;entryY=0;entryDx=0;entryDy=5;entryPerimeter=0;" parent="1" source="bdSp0GzWLAqEPZMk64aj-33" target="bdSp0GzWLAqEPZMk64aj-39" edge="1">
          <mxGeometry relative="1" as="geometry">
            <Array as="points">
              <mxPoint x="1076.52" y="485" />
              <mxPoint x="1076.52" y="515" />
            </Array>
          </mxGeometry>
        </mxCell>
        <mxCell id="bdSp0GzWLAqEPZMk64aj-41" value="" style="endArrow=none;dashed=1;html=1;rounded=0;entryX=0.558;entryY=1.001;entryDx=0;entryDy=0;entryPerimeter=0;" parent="1" source="bdSp0GzWLAqEPZMk64aj-56" target="bdSp0GzWLAqEPZMk64aj-42" edge="1">
          <mxGeometry width="50" height="50" relative="1" as="geometry">
            <mxPoint x="1286.52" y="950" as="sourcePoint" />
            <mxPoint x="1287.52" y="420" as="targetPoint" />
          </mxGeometry>
        </mxCell>
        <mxCell id="bdSp0GzWLAqEPZMk64aj-42" value="" style="html=1;points=[[0,0,0,0,5],[0,1,0,0,-5],[1,0,0,0,5],[1,1,0,0,-5]];perimeter=orthogonalPerimeter;outlineConnect=0;targetShapes=umlLifeline;portConstraint=eastwest;newEdgeStyle={&quot;curved&quot;:0,&quot;rounded&quot;:0};" parent="1" vertex="1">
          <mxGeometry x="1281.52" y="580" width="10" height="80" as="geometry" />
        </mxCell>
        <mxCell id="bdSp0GzWLAqEPZMk64aj-43" style="edgeStyle=orthogonalEdgeStyle;rounded=0;orthogonalLoop=1;jettySize=auto;html=1;curved=0;exitX=1;exitY=1;exitDx=0;exitDy=-5;exitPerimeter=0;entryX=0;entryY=0;entryDx=0;entryDy=5;entryPerimeter=0;" parent="1" source="bdSp0GzWLAqEPZMk64aj-39" target="bdSp0GzWLAqEPZMk64aj-42" edge="1">
          <mxGeometry relative="1" as="geometry" />
        </mxCell>
        <mxCell id="bdSp0GzWLAqEPZMk64aj-44" value="Request.send(task)" style="edgeLabel;html=1;align=center;verticalAlign=middle;resizable=0;points=[];" parent="bdSp0GzWLAqEPZMk64aj-43" vertex="1" connectable="0">
          <mxGeometry x="-0.1395" y="1" relative="1" as="geometry">
            <mxPoint x="12" y="-14" as="offset" />
          </mxGeometry>
        </mxCell>
        <mxCell id="bdSp0GzWLAqEPZMk64aj-45" style="edgeStyle=orthogonalEdgeStyle;rounded=0;orthogonalLoop=1;jettySize=auto;html=1;curved=0;exitX=1;exitY=0;exitDx=0;exitDy=5;exitPerimeter=0;" parent="1" source="bdSp0GzWLAqEPZMk64aj-42" edge="1">
          <mxGeometry relative="1" as="geometry">
            <mxPoint x="1291.52" y="640" as="targetPoint" />
            <Array as="points">
              <mxPoint x="1311.52" y="585" />
              <mxPoint x="1311.52" y="640" />
              <mxPoint x="1291.52" y="640" />
            </Array>
          </mxGeometry>
        </mxCell>
        <mxCell id="bdSp0GzWLAqEPZMk64aj-46" value="@Validation(task)" style="edgeLabel;html=1;align=center;verticalAlign=middle;resizable=0;points=[];" parent="bdSp0GzWLAqEPZMk64aj-45" vertex="1" connectable="0">
          <mxGeometry x="-0.3455" y="2" relative="1" as="geometry">
            <mxPoint x="46" as="offset" />
          </mxGeometry>
        </mxCell>
        <mxCell id="bdSp0GzWLAqEPZMk64aj-47" value="" style="endArrow=none;dashed=1;html=1;rounded=0;entryX=0.558;entryY=1.001;entryDx=0;entryDy=0;entryPerimeter=0;" parent="1" target="bdSp0GzWLAqEPZMk64aj-48" edge="1">
          <mxGeometry width="50" height="50" relative="1" as="geometry">
            <mxPoint x="1467.52" y="1210" as="sourcePoint" />
            <mxPoint x="1467.52" y="350" as="targetPoint" />
          </mxGeometry>
        </mxCell>
        <mxCell id="bdSp0GzWLAqEPZMk64aj-48" value="" style="html=1;points=[[0,0,0,0,5],[0,1,0,0,-5],[1,0,0,0,5],[1,1,0,0,-5]];perimeter=orthogonalPerimeter;outlineConnect=0;targetShapes=umlLifeline;portConstraint=eastwest;newEdgeStyle={&quot;curved&quot;:0,&quot;rounded&quot;:0};" parent="1" vertex="1">
          <mxGeometry x="1461.52" y="650" width="10" height="80" as="geometry" />
        </mxCell>
        <mxCell id="bdSp0GzWLAqEPZMk64aj-49" style="edgeStyle=orthogonalEdgeStyle;rounded=0;orthogonalLoop=1;jettySize=auto;html=1;curved=0;exitX=1;exitY=1;exitDx=0;exitDy=-5;exitPerimeter=0;entryX=0;entryY=0;entryDx=0;entryDy=5;entryPerimeter=0;" parent="1" source="bdSp0GzWLAqEPZMk64aj-42" target="bdSp0GzWLAqEPZMk64aj-48" edge="1">
          <mxGeometry relative="1" as="geometry" />
        </mxCell>
        <mxCell id="bdSp0GzWLAqEPZMk64aj-50" value="TaskService.update(task)" style="edgeLabel;html=1;align=center;verticalAlign=middle;resizable=0;points=[];" parent="bdSp0GzWLAqEPZMk64aj-49" vertex="1" connectable="0">
          <mxGeometry x="-0.1854" y="-2" relative="1" as="geometry">
            <mxPoint x="16" y="-17" as="offset" />
          </mxGeometry>
        </mxCell>
        <mxCell id="bdSp0GzWLAqEPZMk64aj-51" style="edgeStyle=orthogonalEdgeStyle;rounded=0;orthogonalLoop=1;jettySize=auto;html=1;curved=0;exitX=1;exitY=0;exitDx=0;exitDy=5;exitPerimeter=0;entryX=1;entryY=1;entryDx=0;entryDy=-5;entryPerimeter=0;" parent="1" source="bdSp0GzWLAqEPZMk64aj-48" target="bdSp0GzWLAqEPZMk64aj-48" edge="1">
          <mxGeometry relative="1" as="geometry" />
        </mxCell>
        <mxCell id="bdSp0GzWLAqEPZMk64aj-52" value="taskRepository.update(task)" style="edgeLabel;html=1;align=center;verticalAlign=middle;resizable=0;points=[];" parent="bdSp0GzWLAqEPZMk64aj-51" vertex="1" connectable="0">
          <mxGeometry x="-0.4234" y="2" relative="1" as="geometry">
            <mxPoint x="66" y="24" as="offset" />
          </mxGeometry>
        </mxCell>
        <mxCell id="bdSp0GzWLAqEPZMk64aj-53" value="" style="endArrow=none;dashed=1;html=1;rounded=0;entryX=0.558;entryY=1.001;entryDx=0;entryDy=0;entryPerimeter=0;" parent="1" source="bdSp0GzWLAqEPZMk64aj-71" target="bdSp0GzWLAqEPZMk64aj-56" edge="1">
          <mxGeometry width="50" height="50" relative="1" as="geometry">
            <mxPoint x="1287.52" y="1200" as="sourcePoint" />
            <mxPoint x="1287.52" y="660" as="targetPoint" />
          </mxGeometry>
        </mxCell>
        <mxCell id="bdSp0GzWLAqEPZMk64aj-54" style="edgeStyle=orthogonalEdgeStyle;rounded=0;orthogonalLoop=1;jettySize=auto;html=1;curved=0;exitX=1;exitY=0;exitDx=0;exitDy=5;exitPerimeter=0;" parent="1" source="bdSp0GzWLAqEPZMk64aj-56" target="bdSp0GzWLAqEPZMk64aj-56" edge="1">
          <mxGeometry relative="1" as="geometry">
            <mxPoint x="1291.72" y="790" as="targetPoint" />
            <Array as="points">
              <mxPoint x="1291.52" y="740" />
              <mxPoint x="1311.52" y="740" />
              <mxPoint x="1311.52" y="791" />
            </Array>
          </mxGeometry>
        </mxCell>
        <mxCell id="bdSp0GzWLAqEPZMk64aj-55" value="handle(task)" style="edgeLabel;html=1;align=center;verticalAlign=middle;resizable=0;points=[];" parent="bdSp0GzWLAqEPZMk64aj-54" vertex="1" connectable="0">
          <mxGeometry x="-0.1124" relative="1" as="geometry">
            <mxPoint x="35" y="8" as="offset" />
          </mxGeometry>
        </mxCell>
        <mxCell id="bdSp0GzWLAqEPZMk64aj-56" value="" style="html=1;points=[[0,0,0,0,5],[0,1,0,0,-5],[1,0,0,0,5],[1,1,0,0,-5]];perimeter=orthogonalPerimeter;outlineConnect=0;targetShapes=umlLifeline;portConstraint=eastwest;newEdgeStyle={&quot;curved&quot;:0,&quot;rounded&quot;:0};" parent="1" vertex="1">
          <mxGeometry x="1281.52" y="720" width="10" height="80" as="geometry" />
        </mxCell>
        <mxCell id="bdSp0GzWLAqEPZMk64aj-57" value="" style="endArrow=block;dashed=1;endFill=0;endSize=12;html=1;rounded=0;entryX=1;entryY=0;entryDx=0;entryDy=5;entryPerimeter=0;exitX=0;exitY=1;exitDx=0;exitDy=-5;exitPerimeter=0;" parent="1" source="bdSp0GzWLAqEPZMk64aj-48" target="bdSp0GzWLAqEPZMk64aj-56" edge="1">
          <mxGeometry width="160" relative="1" as="geometry">
            <mxPoint x="1461.52" y="759.71" as="sourcePoint" />
            <mxPoint x="1291.52" y="759.71" as="targetPoint" />
          </mxGeometry>
        </mxCell>
        <mxCell id="bdSp0GzWLAqEPZMk64aj-58" value="Task(task)" style="edgeLabel;html=1;align=center;verticalAlign=middle;resizable=0;points=[];" parent="bdSp0GzWLAqEPZMk64aj-57" vertex="1" connectable="0">
          <mxGeometry x="0.3918" relative="1" as="geometry">
            <mxPoint x="33" y="-15" as="offset" />
          </mxGeometry>
        </mxCell>
        <mxCell id="bdSp0GzWLAqEPZMk64aj-59" value="" style="endArrow=none;dashed=1;html=1;rounded=0;" parent="1" edge="1">
          <mxGeometry width="50" height="50" relative="1" as="geometry">
            <mxPoint x="1107" y="900.0000000000002" as="sourcePoint" />
            <mxPoint x="1107" y="790" as="targetPoint" />
          </mxGeometry>
        </mxCell>
        <mxCell id="bdSp0GzWLAqEPZMk64aj-61" value="" style="endArrow=block;dashed=1;endFill=0;endSize=12;html=1;rounded=0;entryX=1;entryY=0;entryDx=0;entryDy=5;entryPerimeter=0;exitX=0;exitY=1;exitDx=0;exitDy=-5;exitPerimeter=0;" parent="1" source="bdSp0GzWLAqEPZMk64aj-56" target="bdSp0GzWLAqEPZMk64aj-64" edge="1">
          <mxGeometry width="160" relative="1" as="geometry">
            <mxPoint x="1316.52" y="790" as="sourcePoint" />
            <mxPoint x="1111.52" y="795.0000000000002" as="targetPoint" />
          </mxGeometry>
        </mxCell>
        <mxCell id="bdSp0GzWLAqEPZMk64aj-62" value="bindTaskToTaskScreen(task)" style="edgeLabel;html=1;align=center;verticalAlign=middle;resizable=0;points=[];" parent="bdSp0GzWLAqEPZMk64aj-61" vertex="1" connectable="0">
          <mxGeometry x="0.3918" relative="1" as="geometry">
            <mxPoint x="33" y="-15" as="offset" />
          </mxGeometry>
        </mxCell>
        <mxCell id="bdSp0GzWLAqEPZMk64aj-63" value="" style="endArrow=none;dashed=1;html=1;rounded=0;entryX=0.558;entryY=1.001;entryDx=0;entryDy=0;entryPerimeter=0;" parent="1" target="bdSp0GzWLAqEPZMk64aj-64" edge="1">
          <mxGeometry width="50" height="50" relative="1" as="geometry">
            <mxPoint x="937.52" y="1200" as="sourcePoint" />
            <mxPoint x="936.52" y="160" as="targetPoint" />
          </mxGeometry>
        </mxCell>
        <mxCell id="bdSp0GzWLAqEPZMk64aj-64" value="" style="html=1;points=[[0,0,0,0,5],[0,1,0,0,-5],[1,0,0,0,5],[1,1,0,0,-5]];perimeter=orthogonalPerimeter;outlineConnect=0;targetShapes=umlLifeline;portConstraint=eastwest;newEdgeStyle={&quot;curved&quot;:0,&quot;rounded&quot;:0};" parent="1" vertex="1">
          <mxGeometry x="931.52" y="790" width="10" height="40" as="geometry" />
        </mxCell>
        <mxCell id="bdSp0GzWLAqEPZMk64aj-67" value="alternative" style="shape=umlFrame;whiteSpace=wrap;html=1;pointerEvents=0;" parent="1" vertex="1">
          <mxGeometry x="860.52" y="620" width="779.48" height="370" as="geometry" />
        </mxCell>
        <mxCell id="bdSp0GzWLAqEPZMk64aj-68" value="" style="endArrow=none;dashed=1;html=1;rounded=0;entryX=0.895;entryY=1.05;entryDx=0;entryDy=0;entryPerimeter=0;" parent="1" target="bdSp0GzWLAqEPZMk64aj-116" edge="1">
          <mxGeometry width="50" height="50" relative="1" as="geometry">
            <mxPoint x="1107.52" y="1220" as="sourcePoint" />
            <mxPoint x="1107.1" y="980.0800000000002" as="targetPoint" />
          </mxGeometry>
        </mxCell>
        <mxCell id="bdSp0GzWLAqEPZMk64aj-70" value="" style="endArrow=none;dashed=1;html=1;rounded=0;entryX=0.558;entryY=1.001;entryDx=0;entryDy=0;entryPerimeter=0;" parent="1" target="bdSp0GzWLAqEPZMk64aj-71" edge="1">
          <mxGeometry width="50" height="50" relative="1" as="geometry">
            <mxPoint x="1287.52" y="1210" as="sourcePoint" />
            <mxPoint x="1287.52" y="800" as="targetPoint" />
          </mxGeometry>
        </mxCell>
        <mxCell id="bdSp0GzWLAqEPZMk64aj-71" value="" style="html=1;points=[[0,0,0,0,5],[0,1,0,0,-5],[1,0,0,0,5],[1,1,0,0,-5]];perimeter=orthogonalPerimeter;outlineConnect=0;targetShapes=umlLifeline;portConstraint=eastwest;newEdgeStyle={&quot;curved&quot;:0,&quot;rounded&quot;:0};" parent="1" vertex="1">
          <mxGeometry x="1281.52" y="870" width="10" height="50" as="geometry" />
        </mxCell>
        <mxCell id="bdSp0GzWLAqEPZMk64aj-72" value="" style="endArrow=block;dashed=1;endFill=0;endSize=12;html=1;rounded=0;entryX=1;entryY=0;entryDx=0;entryDy=5;entryPerimeter=0;exitX=0;exitY=1;exitDx=0;exitDy=-5;exitPerimeter=0;" parent="1" source="bdSp0GzWLAqEPZMk64aj-71" target="bdSp0GzWLAqEPZMk64aj-74" edge="1">
          <mxGeometry width="160" relative="1" as="geometry">
            <mxPoint x="1291.52" y="805" as="sourcePoint" />
            <mxPoint x="1111.52" y="905.0000000000002" as="targetPoint" />
          </mxGeometry>
        </mxCell>
        <mxCell id="bdSp0GzWLAqEPZMk64aj-73" value="ExceptionHandler(exception)" style="edgeLabel;html=1;align=center;verticalAlign=middle;resizable=0;points=[];" parent="bdSp0GzWLAqEPZMk64aj-72" vertex="1" connectable="0">
          <mxGeometry x="0.3918" relative="1" as="geometry">
            <mxPoint x="155" y="-15" as="offset" />
          </mxGeometry>
        </mxCell>
        <mxCell id="bdSp0GzWLAqEPZMk64aj-74" value="" style="html=1;points=[[0,0,0,0,5],[0,1,0,0,-5],[1,0,0,0,5],[1,1,0,0,-5]];perimeter=orthogonalPerimeter;outlineConnect=0;targetShapes=umlLifeline;portConstraint=eastwest;newEdgeStyle={&quot;curved&quot;:0,&quot;rounded&quot;:0};" parent="1" vertex="1">
          <mxGeometry x="931.52" y="910" width="10" height="40" as="geometry" />
        </mxCell>
        <mxCell id="bdSp0GzWLAqEPZMk64aj-114" value="" style="endArrow=none;html=1;rounded=0;exitX=-0.002;exitY=0.556;exitDx=0;exitDy=0;exitPerimeter=0;entryX=1.002;entryY=0.558;entryDx=0;entryDy=0;entryPerimeter=0;" parent="1" edge="1">
          <mxGeometry width="50" height="50" relative="1" as="geometry">
            <mxPoint x="857.4010399999997" y="868.7499999999998" as="sourcePoint" />
            <mxPoint x="1639.99896" y="869.4899999999998" as="targetPoint" />
          </mxGeometry>
        </mxCell>
        <mxCell id="bdSp0GzWLAqEPZMk64aj-115" value="(Данные прошли валидацию)" style="text;strokeColor=none;fillColor=none;align=left;verticalAlign=middle;spacingLeft=4;spacingRight=4;overflow=hidden;points=[[0,0.5],[1,0.5]];portConstraint=eastwest;rotatable=0;whiteSpace=wrap;html=1;" parent="1" vertex="1">
          <mxGeometry x="931.52" y="620" width="180" height="30" as="geometry" />
        </mxCell>
        <mxCell id="bdSp0GzWLAqEPZMk64aj-116" value="(Данные не прошли валидацию)" style="text;strokeColor=none;fillColor=none;align=left;verticalAlign=middle;spacingLeft=4;spacingRight=4;overflow=hidden;points=[[0,0.5],[1,0.5]];portConstraint=eastwest;rotatable=0;whiteSpace=wrap;html=1;" parent="1" vertex="1">
          <mxGeometry x="931.52" y="870" width="195" height="30" as="geometry" />
        </mxCell>
        <mxCell id="bdSp0GzWLAqEPZMk64aj-118" value="" style="endArrow=classic;html=1;rounded=0;entryX=1;entryY=1;entryDx=0;entryDy=-5;entryPerimeter=0;" parent="1" target="-YS815tgYjxunoTYqm5n-1710" edge="1">
          <mxGeometry width="50" height="50" relative="1" as="geometry">
            <mxPoint x="490" y="870" as="sourcePoint" />
            <mxPoint x="570" y="890" as="targetPoint" />
            <Array as="points">
              <mxPoint x="490" y="915" />
            </Array>
          </mxGeometry>
        </mxCell>
        <mxCell id="bdSp0GzWLAqEPZMk64aj-119" value="" style="endArrow=classic;html=1;rounded=0;entryX=1;entryY=1;entryDx=0;entryDy=-5;entryPerimeter=0;" parent="1" edge="1">
          <mxGeometry width="50" height="50" relative="1" as="geometry">
            <mxPoint x="1316.52" y="870" as="sourcePoint" />
            <mxPoint x="1291.52" y="905" as="targetPoint" />
            <Array as="points">
              <mxPoint x="1316.52" y="905" />
            </Array>
          </mxGeometry>
        </mxCell>
        <mxCell id="3DV8TFoDORNND812AjDE-1" value="" style="endArrow=none;dashed=1;html=1;rounded=0;entryX=0.558;entryY=1.001;entryDx=0;entryDy=0;entryPerimeter=0;" parent="1" target="-YS815tgYjxunoTYqm5n-1732" edge="1">
          <mxGeometry width="50" height="50" relative="1" as="geometry">
            <mxPoint x="111" y="1200" as="sourcePoint" />
            <mxPoint x="111" y="860" as="targetPoint" />
          </mxGeometry>
        </mxCell>
        <mxCell id="-YS815tgYjxunoTYqm5n-1732" value="" style="html=1;points=[[0,0,0,0,5],[0,1,0,0,-5],[1,0,0,0,5],[1,1,0,0,-5]];perimeter=orthogonalPerimeter;outlineConnect=0;targetShapes=umlLifeline;portConstraint=eastwest;newEdgeStyle={&quot;curved&quot;:0,&quot;rounded&quot;:0};" parent="1" vertex="1">
          <mxGeometry x="105" y="910" width="10" height="40" as="geometry" />
        </mxCell>
        <mxCell id="I6EBn-Swttk8GNA4YBlN-1" style="edgeStyle=orthogonalEdgeStyle;rounded=0;orthogonalLoop=1;jettySize=auto;html=1;curved=0;exitX=1;exitY=0;exitDx=0;exitDy=5;exitPerimeter=0;" edge="1" parent="1">
          <mxGeometry relative="1" as="geometry">
            <mxPoint x="465" y="245" as="sourcePoint" />
            <mxPoint x="465" y="280" as="targetPoint" />
            <Array as="points">
              <mxPoint x="485" y="245" />
              <mxPoint x="485" y="280" />
            </Array>
          </mxGeometry>
        </mxCell>
        <mxCell id="I6EBn-Swttk8GNA4YBlN-2" value="&lt;div&gt;Формирование запроса &lt;br&gt;&lt;/div&gt;на получение задачи" style="edgeLabel;html=1;align=center;verticalAlign=middle;resizable=0;points=[];" vertex="1" connectable="0" parent="I6EBn-Swttk8GNA4YBlN-1">
          <mxGeometry x="-0.02" y="2" relative="1" as="geometry">
            <mxPoint x="63" y="-6" as="offset" />
          </mxGeometry>
        </mxCell>
        <mxCell id="I6EBn-Swttk8GNA4YBlN-3" style="edgeStyle=orthogonalEdgeStyle;rounded=0;orthogonalLoop=1;jettySize=auto;html=1;curved=0;exitX=1;exitY=0;exitDx=0;exitDy=5;exitPerimeter=0;" edge="1" parent="1">
          <mxGeometry relative="1" as="geometry">
            <mxPoint x="465" y="665" as="targetPoint" />
            <Array as="points">
              <mxPoint x="465" y="630" />
              <mxPoint x="485" y="630" />
              <mxPoint x="485" y="665" />
            </Array>
            <mxPoint x="465" y="620" as="sourcePoint" />
          </mxGeometry>
        </mxCell>
        <mxCell id="I6EBn-Swttk8GNA4YBlN-4" value="&lt;div&gt;Формирование запроса&lt;/div&gt;&lt;div&gt;на редактирование&lt;/div&gt;" style="edgeLabel;html=1;align=center;verticalAlign=middle;resizable=0;points=[];" vertex="1" connectable="0" parent="I6EBn-Swttk8GNA4YBlN-3">
          <mxGeometry x="-0.3455" y="2" relative="1" as="geometry">
            <mxPoint x="67" y="7" as="offset" />
          </mxGeometry>
        </mxCell>
        <mxCell id="I6EBn-Swttk8GNA4YBlN-5" value="" style="shape=umlActor;verticalLabelPosition=bottom;verticalAlign=top;html=1;outlineConnect=0;" vertex="1" parent="1">
          <mxGeometry x="540.52" y="1890" width="30" height="60" as="geometry" />
        </mxCell>
        <UserObject label="&lt;span style=&quot;font-size:13.999999999999998pt;font-family:Calibri,sans-serif;color:#000000;background-color:transparent;font-weight:400;font-style:normal;font-variant:normal;text-decoration:none;vertical-align:baseline;white-space:pre;white-space:pre-wrap;&quot; id=&quot;docs-internal-guid-2cc9b277-7fff-0609-1e28-aef838948337&quot;&gt;&lt;span style=&quot;border:none;display:inline-block;overflow:hidden;width:624px;height:613px;&quot;&gt;&lt;img src=&quot;https://lh7-rt.googleusercontent.com/docsz/AD_4nXdahebGSowXDfGSRzhD5d4F_Ivj_1Taz9PFO9uLw9LJCvIcLXsnKDx7Ra4xyWEcSKfLNo-OX7YXgUEaHJVjbwrrmbDIQcslWZq04KnR1MvnUXBoNPBJoH16VXZ_DjoZmFbbJWAl71jI2gLMqXU-p_A?key=eTLHwvgaXD9bttryIlu51Q&quot; width=&quot;624&quot; height=&quot;613&quot; style=&quot;margin-left:0px;margin-top:0px;&quot;&gt;&lt;/span&gt;&lt;/span&gt;" link="&lt;span style=&quot;font-size:13.999999999999998pt;font-family:Calibri,sans-serif;color:#000000;background-color:transparent;font-weight:400;font-style:normal;font-variant:normal;text-decoration:none;vertical-align:baseline;white-space:pre;white-space:pre-wrap;&quot; id=&quot;docs-internal-guid-2cc9b277-7fff-0609-1e28-aef838948337&quot;&gt;&lt;span style=&quot;border:none;display:inline-block;overflow:hidden;width:624px;height:613px;&quot;&gt;&lt;img src=&quot;https://lh7-rt.googleusercontent.com/docsz/AD_4nXdahebGSowXDfGSRzhD5d4F_Ivj_1Taz9PFO9uLw9LJCvIcLXsnKDx7Ra4xyWEcSKfLNo-OX7YXgUEaHJVjbwrrmbDIQcslWZq04KnR1MvnUXBoNPBJoH16VXZ_DjoZmFbbJWAl71jI2gLMqXU-p_A?key=eTLHwvgaXD9bttryIlu51Q&quot; width=&quot;624&quot; height=&quot;613&quot; style=&quot;margin-left:0px;margin-top:0px;&quot;&gt;&lt;/span&gt;&lt;/span&gt;" id="I6EBn-Swttk8GNA4YBlN-6">
          <mxCell style="text;whiteSpace=wrap;html=1;" vertex="1" parent="1">
            <mxGeometry x="391.52" y="2250" width="560" height="640" as="geometry" />
          </mxCell>
        </UserObject>
        <mxCell id="I6EBn-Swttk8GNA4YBlN-7" value="Просмотр категорий" style="ellipse;whiteSpace=wrap;html=1;" vertex="1" parent="1">
          <mxGeometry x="960.52" y="1720" width="120" height="80" as="geometry" />
        </mxCell>
        <mxCell id="I6EBn-Swttk8GNA4YBlN-8" value="Удалить категорию" style="ellipse;whiteSpace=wrap;html=1;" vertex="1" parent="1">
          <mxGeometry x="780" y="1850" width="120" height="80" as="geometry" />
        </mxCell>
        <mxCell id="I6EBn-Swttk8GNA4YBlN-20" style="edgeStyle=orthogonalEdgeStyle;rounded=0;orthogonalLoop=1;jettySize=auto;html=1;exitX=1;exitY=0.5;exitDx=0;exitDy=0;entryX=0;entryY=0.5;entryDx=0;entryDy=0;dashed=1;" edge="1" parent="1" source="I6EBn-Swttk8GNA4YBlN-9" target="I6EBn-Swttk8GNA4YBlN-11">
          <mxGeometry relative="1" as="geometry" />
        </mxCell>
        <mxCell id="I6EBn-Swttk8GNA4YBlN-110" value="Use" style="edgeLabel;html=1;align=center;verticalAlign=middle;resizable=0;points=[];" vertex="1" connectable="0" parent="I6EBn-Swttk8GNA4YBlN-20">
          <mxGeometry x="-0.1881" y="1" relative="1" as="geometry">
            <mxPoint as="offset" />
          </mxGeometry>
        </mxCell>
        <mxCell id="I6EBn-Swttk8GNA4YBlN-9" value="Создать категорию" style="ellipse;whiteSpace=wrap;html=1;" vertex="1" parent="1">
          <mxGeometry x="670.52" y="1950" width="120" height="80" as="geometry" />
        </mxCell>
        <mxCell id="I6EBn-Swttk8GNA4YBlN-10" value="Ввести название" style="ellipse;whiteSpace=wrap;html=1;" vertex="1" parent="1">
          <mxGeometry x="840.52" y="2070" width="120" height="80" as="geometry" />
        </mxCell>
        <mxCell id="I6EBn-Swttk8GNA4YBlN-11" value="Выбрать цвет" style="ellipse;whiteSpace=wrap;html=1;" vertex="1" parent="1">
          <mxGeometry x="955" y="1950" width="120" height="80" as="geometry" />
        </mxCell>
        <mxCell id="I6EBn-Swttk8GNA4YBlN-19" style="edgeStyle=orthogonalEdgeStyle;rounded=0;orthogonalLoop=1;jettySize=auto;html=1;exitX=0.5;exitY=1;exitDx=0;exitDy=0;entryX=0.5;entryY=0;entryDx=0;entryDy=0;dashed=1;" edge="1" parent="1" source="I6EBn-Swttk8GNA4YBlN-12" target="I6EBn-Swttk8GNA4YBlN-11">
          <mxGeometry relative="1" as="geometry" />
        </mxCell>
        <mxCell id="I6EBn-Swttk8GNA4YBlN-109" value="Use" style="edgeLabel;html=1;align=center;verticalAlign=middle;resizable=0;points=[];" vertex="1" connectable="0" parent="I6EBn-Swttk8GNA4YBlN-19">
          <mxGeometry x="-0.3853" y="-4" relative="1" as="geometry">
            <mxPoint y="1" as="offset" />
          </mxGeometry>
        </mxCell>
        <mxCell id="I6EBn-Swttk8GNA4YBlN-24" style="edgeStyle=orthogonalEdgeStyle;rounded=0;orthogonalLoop=1;jettySize=auto;html=1;exitX=1;exitY=0.5;exitDx=0;exitDy=0;entryX=0;entryY=0.5;entryDx=0;entryDy=0;dashed=1;" edge="1" parent="1" source="I6EBn-Swttk8GNA4YBlN-12" target="I6EBn-Swttk8GNA4YBlN-13">
          <mxGeometry relative="1" as="geometry" />
        </mxCell>
        <mxCell id="I6EBn-Swttk8GNA4YBlN-108" value="Use" style="edgeLabel;html=1;align=center;verticalAlign=middle;resizable=0;points=[];" vertex="1" connectable="0" parent="I6EBn-Swttk8GNA4YBlN-24">
          <mxGeometry x="0.1147" y="-2" relative="1" as="geometry">
            <mxPoint as="offset" />
          </mxGeometry>
        </mxCell>
        <mxCell id="I6EBn-Swttk8GNA4YBlN-12" value="Выбор категории" style="ellipse;whiteSpace=wrap;html=1;" vertex="1" parent="1">
          <mxGeometry x="955" y="1830" width="120" height="80" as="geometry" />
        </mxCell>
        <mxCell id="I6EBn-Swttk8GNA4YBlN-13" value="Редактирование названия" style="ellipse;whiteSpace=wrap;html=1;" vertex="1" parent="1">
          <mxGeometry x="1115" y="1830" width="120" height="80" as="geometry" />
        </mxCell>
        <mxCell id="I6EBn-Swttk8GNA4YBlN-14" value="" style="endArrow=classic;html=1;rounded=0;entryX=0;entryY=0.5;entryDx=0;entryDy=0;" edge="1" parent="1" target="I6EBn-Swttk8GNA4YBlN-8">
          <mxGeometry width="50" height="50" relative="1" as="geometry">
            <mxPoint x="580.52" y="1890" as="sourcePoint" />
            <mxPoint x="650.52" y="1810" as="targetPoint" />
          </mxGeometry>
        </mxCell>
        <mxCell id="I6EBn-Swttk8GNA4YBlN-15" value="" style="endArrow=classic;html=1;rounded=0;entryX=0;entryY=1;entryDx=0;entryDy=0;" edge="1" parent="1" target="I6EBn-Swttk8GNA4YBlN-7">
          <mxGeometry width="50" height="50" relative="1" as="geometry">
            <mxPoint x="580.52" y="1890" as="sourcePoint" />
            <mxPoint x="640.52" y="1860" as="targetPoint" />
          </mxGeometry>
        </mxCell>
        <mxCell id="I6EBn-Swttk8GNA4YBlN-16" value="" style="endArrow=classic;html=1;rounded=0;entryX=0;entryY=0.5;entryDx=0;entryDy=0;" edge="1" parent="1" target="I6EBn-Swttk8GNA4YBlN-9">
          <mxGeometry width="50" height="50" relative="1" as="geometry">
            <mxPoint x="580.52" y="1890" as="sourcePoint" />
            <mxPoint x="620.52" y="1970" as="targetPoint" />
          </mxGeometry>
        </mxCell>
        <mxCell id="I6EBn-Swttk8GNA4YBlN-22" value="" style="endArrow=classic;html=1;rounded=0;entryX=0;entryY=0;entryDx=0;entryDy=0;exitX=1;exitY=1;exitDx=0;exitDy=0;dashed=1;" edge="1" parent="1" source="I6EBn-Swttk8GNA4YBlN-9" target="I6EBn-Swttk8GNA4YBlN-10">
          <mxGeometry width="50" height="50" relative="1" as="geometry">
            <mxPoint x="790.52" y="1990" as="sourcePoint" />
            <mxPoint x="820.52" y="2040" as="targetPoint" />
          </mxGeometry>
        </mxCell>
        <mxCell id="I6EBn-Swttk8GNA4YBlN-111" value="Use" style="edgeLabel;html=1;align=center;verticalAlign=middle;resizable=0;points=[];" vertex="1" connectable="0" parent="I6EBn-Swttk8GNA4YBlN-22">
          <mxGeometry x="-0.0557" y="3" relative="1" as="geometry">
            <mxPoint as="offset" />
          </mxGeometry>
        </mxCell>
        <mxCell id="I6EBn-Swttk8GNA4YBlN-23" value="" style="endArrow=classic;html=1;rounded=0;exitX=0.5;exitY=1;exitDx=0;exitDy=0;entryX=0.5;entryY=0;entryDx=0;entryDy=0;" edge="1" parent="1" source="I6EBn-Swttk8GNA4YBlN-7" target="I6EBn-Swttk8GNA4YBlN-12">
          <mxGeometry width="50" height="50" relative="1" as="geometry">
            <mxPoint x="750.52" y="1730" as="sourcePoint" />
            <mxPoint x="800.52" y="1680" as="targetPoint" />
          </mxGeometry>
        </mxCell>
        <mxCell id="I6EBn-Swttk8GNA4YBlN-27" value="Фильтры" style="ellipse;whiteSpace=wrap;html=1;" vertex="1" parent="1">
          <mxGeometry x="1381.52" y="1320" width="120" height="80" as="geometry" />
        </mxCell>
        <mxCell id="I6EBn-Swttk8GNA4YBlN-28" value="" style="endArrow=classic;html=1;rounded=0;exitX=0.34;exitY=0.967;exitDx=0;exitDy=0;entryX=1;entryY=0.5;entryDx=0;entryDy=0;exitPerimeter=0;dashed=1;" edge="1" parent="1" source="I6EBn-Swttk8GNA4YBlN-27" target="I6EBn-Swttk8GNA4YBlN-7">
          <mxGeometry width="50" height="50" relative="1" as="geometry">
            <mxPoint x="880" y="1550" as="sourcePoint" />
            <mxPoint x="743.9464068711927" y="1531.7157287525379" as="targetPoint" />
          </mxGeometry>
        </mxCell>
        <mxCell id="I6EBn-Swttk8GNA4YBlN-100" value="Use" style="edgeLabel;html=1;align=center;verticalAlign=middle;resizable=0;points=[];" vertex="1" connectable="0" parent="I6EBn-Swttk8GNA4YBlN-28">
          <mxGeometry x="0.354" y="-3" relative="1" as="geometry">
            <mxPoint x="1" as="offset" />
          </mxGeometry>
        </mxCell>
        <mxCell id="I6EBn-Swttk8GNA4YBlN-29" value="Просмотр задач" style="ellipse;whiteSpace=wrap;html=1;" vertex="1" parent="1">
          <mxGeometry x="570.52" y="1290" width="120" height="80" as="geometry" />
        </mxCell>
        <mxCell id="I6EBn-Swttk8GNA4YBlN-30" value="" style="endArrow=classic;html=1;rounded=0;entryX=0;entryY=1;entryDx=0;entryDy=0;" edge="1" parent="1" target="I6EBn-Swttk8GNA4YBlN-29">
          <mxGeometry width="50" height="50" relative="1" as="geometry">
            <mxPoint x="580.52" y="1890" as="sourcePoint" />
            <mxPoint x="550.52" y="1750" as="targetPoint" />
          </mxGeometry>
        </mxCell>
        <mxCell id="I6EBn-Swttk8GNA4YBlN-32" value="Наличие уведомления" style="ellipse;whiteSpace=wrap;html=1;" vertex="1" parent="1">
          <mxGeometry x="1570" y="1600" width="120" height="80" as="geometry" />
        </mxCell>
        <mxCell id="I6EBn-Swttk8GNA4YBlN-33" value="В этом месяце" style="ellipse;whiteSpace=wrap;html=1;" vertex="1" parent="1">
          <mxGeometry x="1550" y="1290" width="120" height="80" as="geometry" />
        </mxCell>
        <mxCell id="I6EBn-Swttk8GNA4YBlN-35" value="На этой неделе" style="ellipse;whiteSpace=wrap;html=1;" vertex="1" parent="1">
          <mxGeometry x="1570" y="1500" width="120" height="80" as="geometry" />
        </mxCell>
        <mxCell id="I6EBn-Swttk8GNA4YBlN-36" value="По названию" style="ellipse;whiteSpace=wrap;html=1;" vertex="1" parent="1">
          <mxGeometry x="1540" y="1400" width="120" height="80" as="geometry" />
        </mxCell>
        <mxCell id="I6EBn-Swttk8GNA4YBlN-37" value="По приоритету" style="ellipse;whiteSpace=wrap;html=1;" vertex="1" parent="1">
          <mxGeometry x="1406.52" y="1600" width="120" height="80" as="geometry" />
        </mxCell>
        <mxCell id="I6EBn-Swttk8GNA4YBlN-38" value="По категориям" style="ellipse;whiteSpace=wrap;html=1;" vertex="1" parent="1">
          <mxGeometry x="1260" y="1600" width="120" height="80" as="geometry" />
        </mxCell>
        <mxCell id="I6EBn-Swttk8GNA4YBlN-40" value="" style="endArrow=classic;html=1;rounded=0;entryX=0.5;entryY=0;entryDx=0;entryDy=0;exitX=0.5;exitY=1;exitDx=0;exitDy=0;dashed=1;" edge="1" parent="1" source="I6EBn-Swttk8GNA4YBlN-27" target="I6EBn-Swttk8GNA4YBlN-38">
          <mxGeometry width="50" height="50" relative="1" as="geometry">
            <mxPoint x="1360" y="1280" as="sourcePoint" />
            <mxPoint x="1410" y="1230" as="targetPoint" />
          </mxGeometry>
        </mxCell>
        <mxCell id="I6EBn-Swttk8GNA4YBlN-101" value="Use" style="edgeLabel;html=1;align=center;verticalAlign=middle;resizable=0;points=[];" vertex="1" connectable="0" parent="I6EBn-Swttk8GNA4YBlN-40">
          <mxGeometry x="0.5042" y="7" relative="1" as="geometry">
            <mxPoint as="offset" />
          </mxGeometry>
        </mxCell>
        <mxCell id="I6EBn-Swttk8GNA4YBlN-41" value="" style="endArrow=classic;html=1;rounded=0;entryX=0.5;entryY=0;entryDx=0;entryDy=0;exitX=0.551;exitY=0.983;exitDx=0;exitDy=0;exitPerimeter=0;dashed=1;" edge="1" parent="1" source="I6EBn-Swttk8GNA4YBlN-27" target="I6EBn-Swttk8GNA4YBlN-37">
          <mxGeometry width="50" height="50" relative="1" as="geometry">
            <mxPoint x="1415" y="1320" as="sourcePoint" />
            <mxPoint x="1340" y="1200" as="targetPoint" />
          </mxGeometry>
        </mxCell>
        <mxCell id="I6EBn-Swttk8GNA4YBlN-102" value="Use" style="edgeLabel;html=1;align=center;verticalAlign=middle;resizable=0;points=[];" vertex="1" connectable="0" parent="I6EBn-Swttk8GNA4YBlN-41">
          <mxGeometry x="0.5098" y="1" relative="1" as="geometry">
            <mxPoint as="offset" />
          </mxGeometry>
        </mxCell>
        <mxCell id="I6EBn-Swttk8GNA4YBlN-42" value="" style="endArrow=classic;html=1;rounded=0;entryX=0;entryY=0;entryDx=0;entryDy=0;exitX=0.633;exitY=0.947;exitDx=0;exitDy=0;exitPerimeter=0;dashed=1;" edge="1" parent="1" source="I6EBn-Swttk8GNA4YBlN-27" target="I6EBn-Swttk8GNA4YBlN-32">
          <mxGeometry width="50" height="50" relative="1" as="geometry">
            <mxPoint x="1425" y="1330" as="sourcePoint" />
            <mxPoint x="1350" y="1210" as="targetPoint" />
          </mxGeometry>
        </mxCell>
        <mxCell id="I6EBn-Swttk8GNA4YBlN-103" value="Use" style="edgeLabel;html=1;align=center;verticalAlign=middle;resizable=0;points=[];" vertex="1" connectable="0" parent="I6EBn-Swttk8GNA4YBlN-42">
          <mxGeometry x="0.4505" y="-3" relative="1" as="geometry">
            <mxPoint y="1" as="offset" />
          </mxGeometry>
        </mxCell>
        <mxCell id="I6EBn-Swttk8GNA4YBlN-43" value="" style="endArrow=classic;html=1;rounded=0;entryX=0;entryY=0.5;entryDx=0;entryDy=0;exitX=1;exitY=0.5;exitDx=0;exitDy=0;dashed=1;" edge="1" parent="1" source="I6EBn-Swttk8GNA4YBlN-27" target="I6EBn-Swttk8GNA4YBlN-33">
          <mxGeometry width="50" height="50" relative="1" as="geometry">
            <mxPoint x="1435" y="1340" as="sourcePoint" />
            <mxPoint x="1360" y="1220" as="targetPoint" />
          </mxGeometry>
        </mxCell>
        <mxCell id="I6EBn-Swttk8GNA4YBlN-106" value="Use" style="edgeLabel;html=1;align=center;verticalAlign=middle;resizable=0;points=[];" vertex="1" connectable="0" parent="I6EBn-Swttk8GNA4YBlN-43">
          <mxGeometry x="-0.3011" y="-7" relative="1" as="geometry">
            <mxPoint as="offset" />
          </mxGeometry>
        </mxCell>
        <mxCell id="I6EBn-Swttk8GNA4YBlN-44" value="" style="endArrow=classic;html=1;rounded=0;entryX=0;entryY=0;entryDx=0;entryDy=0;exitX=1;exitY=1;exitDx=0;exitDy=0;dashed=1;" edge="1" parent="1" source="I6EBn-Swttk8GNA4YBlN-27" target="I6EBn-Swttk8GNA4YBlN-36">
          <mxGeometry width="50" height="50" relative="1" as="geometry">
            <mxPoint x="1445" y="1350" as="sourcePoint" />
            <mxPoint x="1370" y="1230" as="targetPoint" />
          </mxGeometry>
        </mxCell>
        <mxCell id="I6EBn-Swttk8GNA4YBlN-105" value="Use" style="edgeLabel;html=1;align=center;verticalAlign=middle;resizable=0;points=[];" vertex="1" connectable="0" parent="I6EBn-Swttk8GNA4YBlN-44">
          <mxGeometry x="0.013" y="6" relative="1" as="geometry">
            <mxPoint as="offset" />
          </mxGeometry>
        </mxCell>
        <mxCell id="I6EBn-Swttk8GNA4YBlN-49" value="" style="endArrow=classic;html=1;rounded=0;exitX=1;exitY=0.5;exitDx=0;exitDy=0;entryX=0;entryY=0;entryDx=0;entryDy=0;dashed=1;" edge="1" parent="1" source="I6EBn-Swttk8GNA4YBlN-29" target="I6EBn-Swttk8GNA4YBlN-27">
          <mxGeometry width="50" height="50" relative="1" as="geometry">
            <mxPoint x="460" y="1560" as="sourcePoint" />
            <mxPoint x="510" y="1510" as="targetPoint" />
          </mxGeometry>
        </mxCell>
        <mxCell id="I6EBn-Swttk8GNA4YBlN-107" value="Use" style="edgeLabel;html=1;align=center;verticalAlign=middle;resizable=0;points=[];" vertex="1" connectable="0" parent="I6EBn-Swttk8GNA4YBlN-49">
          <mxGeometry x="0.0253" y="3" relative="1" as="geometry">
            <mxPoint as="offset" />
          </mxGeometry>
        </mxCell>
        <mxCell id="I6EBn-Swttk8GNA4YBlN-50" value="Создать задачу" style="ellipse;whiteSpace=wrap;html=1;" vertex="1" parent="1">
          <mxGeometry x="760" y="1700" width="120" height="80" as="geometry" />
        </mxCell>
        <mxCell id="I6EBn-Swttk8GNA4YBlN-51" value="" style="endArrow=classic;html=1;rounded=0;entryX=0;entryY=1;entryDx=0;entryDy=0;" edge="1" parent="1" target="I6EBn-Swttk8GNA4YBlN-50">
          <mxGeometry width="50" height="50" relative="1" as="geometry">
            <mxPoint x="580.52" y="1890" as="sourcePoint" />
            <mxPoint x="620.52" y="1624" as="targetPoint" />
          </mxGeometry>
        </mxCell>
        <mxCell id="I6EBn-Swttk8GNA4YBlN-52" value="Назначить категории" style="ellipse;whiteSpace=wrap;html=1;" vertex="1" parent="1">
          <mxGeometry x="980.52" y="1590" width="120" height="80" as="geometry" />
        </mxCell>
        <mxCell id="I6EBn-Swttk8GNA4YBlN-54" value="" style="endArrow=classic;html=1;rounded=0;entryX=0;entryY=1;entryDx=0;entryDy=0;exitX=1;exitY=0;exitDx=0;exitDy=0;dashed=1;" edge="1" parent="1" source="I6EBn-Swttk8GNA4YBlN-50" target="I6EBn-Swttk8GNA4YBlN-52">
          <mxGeometry width="50" height="50" relative="1" as="geometry">
            <mxPoint x="740.52" y="1660" as="sourcePoint" />
            <mxPoint x="790.52" y="1610" as="targetPoint" />
          </mxGeometry>
        </mxCell>
        <mxCell id="I6EBn-Swttk8GNA4YBlN-92" value="Use" style="edgeLabel;html=1;align=center;verticalAlign=middle;resizable=0;points=[];" vertex="1" connectable="0" parent="I6EBn-Swttk8GNA4YBlN-54">
          <mxGeometry x="-0.1842" y="-2" relative="1" as="geometry">
            <mxPoint x="-1" as="offset" />
          </mxGeometry>
        </mxCell>
        <mxCell id="I6EBn-Swttk8GNA4YBlN-84" style="edgeStyle=orthogonalEdgeStyle;rounded=0;orthogonalLoop=1;jettySize=auto;html=1;exitX=1;exitY=0.5;exitDx=0;exitDy=0;entryX=0;entryY=0.5;entryDx=0;entryDy=0;dashed=1;" edge="1" parent="1" source="I6EBn-Swttk8GNA4YBlN-55" target="I6EBn-Swttk8GNA4YBlN-79">
          <mxGeometry relative="1" as="geometry" />
        </mxCell>
        <mxCell id="I6EBn-Swttk8GNA4YBlN-99" value="Use" style="edgeLabel;html=1;align=center;verticalAlign=middle;resizable=0;points=[];" vertex="1" connectable="0" parent="I6EBn-Swttk8GNA4YBlN-84">
          <mxGeometry x="-0.0818" y="1" relative="1" as="geometry">
            <mxPoint as="offset" />
          </mxGeometry>
        </mxCell>
        <mxCell id="I6EBn-Swttk8GNA4YBlN-55" value="Выбрать задачу" style="ellipse;whiteSpace=wrap;html=1;" vertex="1" parent="1">
          <mxGeometry x="1016.52" y="1450" width="120" height="80" as="geometry" />
        </mxCell>
        <mxCell id="I6EBn-Swttk8GNA4YBlN-56" value="" style="endArrow=classic;html=1;rounded=0;exitX=1;exitY=1;exitDx=0;exitDy=0;entryX=0.049;entryY=0.25;entryDx=0;entryDy=0;entryPerimeter=0;" edge="1" parent="1" source="I6EBn-Swttk8GNA4YBlN-29" target="I6EBn-Swttk8GNA4YBlN-55">
          <mxGeometry width="50" height="50" relative="1" as="geometry">
            <mxPoint x="670.52" y="1500" as="sourcePoint" />
            <mxPoint x="720.52" y="1450" as="targetPoint" />
          </mxGeometry>
        </mxCell>
        <mxCell id="I6EBn-Swttk8GNA4YBlN-57" value="" style="endArrow=classic;html=1;rounded=0;exitX=0.719;exitY=0.95;exitDx=0;exitDy=0;exitPerimeter=0;entryX=0;entryY=0;entryDx=0;entryDy=0;dashed=1;" edge="1" parent="1" source="I6EBn-Swttk8GNA4YBlN-27" target="I6EBn-Swttk8GNA4YBlN-35">
          <mxGeometry width="50" height="50" relative="1" as="geometry">
            <mxPoint x="1433.48" y="1550" as="sourcePoint" />
            <mxPoint x="1483.48" y="1500" as="targetPoint" />
          </mxGeometry>
        </mxCell>
        <mxCell id="I6EBn-Swttk8GNA4YBlN-104" value="Use" style="edgeLabel;html=1;align=center;verticalAlign=middle;resizable=0;points=[];" vertex="1" connectable="0" parent="I6EBn-Swttk8GNA4YBlN-57">
          <mxGeometry x="-0.0681" y="-7" relative="1" as="geometry">
            <mxPoint as="offset" />
          </mxGeometry>
        </mxCell>
        <mxCell id="I6EBn-Swttk8GNA4YBlN-58" value="" style="endArrow=classic;html=1;rounded=0;exitX=0.406;exitY=1.009;exitDx=0;exitDy=0;entryX=0.5;entryY=0;entryDx=0;entryDy=0;exitPerimeter=0;dashed=1;" edge="1" parent="1" source="I6EBn-Swttk8GNA4YBlN-52" target="I6EBn-Swttk8GNA4YBlN-7">
          <mxGeometry width="50" height="50" relative="1" as="geometry">
            <mxPoint x="770" y="1650" as="sourcePoint" />
            <mxPoint x="820" y="1600" as="targetPoint" />
          </mxGeometry>
        </mxCell>
        <mxCell id="I6EBn-Swttk8GNA4YBlN-59" value="" style="endArrow=classic;html=1;rounded=0;exitX=0.5;exitY=1;exitDx=0;exitDy=0;entryX=0.5;entryY=0;entryDx=0;entryDy=0;dashed=1;" edge="1" parent="1" source="I6EBn-Swttk8GNA4YBlN-55" target="I6EBn-Swttk8GNA4YBlN-52">
          <mxGeometry width="50" height="50" relative="1" as="geometry">
            <mxPoint x="790" y="1590" as="sourcePoint" />
            <mxPoint x="840" y="1540" as="targetPoint" />
          </mxGeometry>
        </mxCell>
        <mxCell id="I6EBn-Swttk8GNA4YBlN-95" value="Use" style="edgeLabel;html=1;align=center;verticalAlign=middle;resizable=0;points=[];" vertex="1" connectable="0" parent="I6EBn-Swttk8GNA4YBlN-59">
          <mxGeometry x="0.2992" y="-6" relative="1" as="geometry">
            <mxPoint as="offset" />
          </mxGeometry>
        </mxCell>
        <mxCell id="I6EBn-Swttk8GNA4YBlN-60" value="Назначить уведомление" style="ellipse;whiteSpace=wrap;html=1;" vertex="1" parent="1">
          <mxGeometry x="851.52" y="1570" width="120" height="80" as="geometry" />
        </mxCell>
        <mxCell id="I6EBn-Swttk8GNA4YBlN-61" value="Ввести название" style="ellipse;whiteSpace=wrap;html=1;" vertex="1" parent="1">
          <mxGeometry x="731.52" y="1430" width="120" height="80" as="geometry" />
        </mxCell>
        <mxCell id="I6EBn-Swttk8GNA4YBlN-62" value="Ввести описание" style="ellipse;whiteSpace=wrap;html=1;" vertex="1" parent="1">
          <mxGeometry x="600" y="1714" width="120" height="80" as="geometry" />
        </mxCell>
        <mxCell id="I6EBn-Swttk8GNA4YBlN-63" value="Поставить дату начала" style="ellipse;whiteSpace=wrap;html=1;" vertex="1" parent="1">
          <mxGeometry x="600" y="1620" width="120" height="80" as="geometry" />
        </mxCell>
        <mxCell id="I6EBn-Swttk8GNA4YBlN-64" value="Задать приоритет" style="ellipse;whiteSpace=wrap;html=1;" vertex="1" parent="1">
          <mxGeometry x="600" y="1520" width="120" height="80" as="geometry" />
        </mxCell>
        <mxCell id="I6EBn-Swttk8GNA4YBlN-65" value="Ввести подзадачи" style="ellipse;whiteSpace=wrap;html=1;" vertex="1" parent="1">
          <mxGeometry x="600" y="1430" width="120" height="80" as="geometry" />
        </mxCell>
        <mxCell id="I6EBn-Swttk8GNA4YBlN-67" value="" style="endArrow=classic;html=1;rounded=0;entryX=1;entryY=0.5;entryDx=0;entryDy=0;exitX=0;exitY=0.5;exitDx=0;exitDy=0;dashed=1;" edge="1" parent="1" source="I6EBn-Swttk8GNA4YBlN-50" target="I6EBn-Swttk8GNA4YBlN-62">
          <mxGeometry width="50" height="50" relative="1" as="geometry">
            <mxPoint x="750" y="1650" as="sourcePoint" />
            <mxPoint x="800" y="1600" as="targetPoint" />
          </mxGeometry>
        </mxCell>
        <mxCell id="I6EBn-Swttk8GNA4YBlN-86" value="Use" style="edgeLabel;html=1;align=center;verticalAlign=middle;resizable=0;points=[];" vertex="1" connectable="0" parent="I6EBn-Swttk8GNA4YBlN-67">
          <mxGeometry x="-0.3721" y="-2" relative="1" as="geometry">
            <mxPoint as="offset" />
          </mxGeometry>
        </mxCell>
        <mxCell id="I6EBn-Swttk8GNA4YBlN-68" value="" style="endArrow=classic;html=1;rounded=0;entryX=1;entryY=0.5;entryDx=0;entryDy=0;exitX=0;exitY=0;exitDx=0;exitDy=0;dashed=1;" edge="1" parent="1" source="I6EBn-Swttk8GNA4YBlN-50" target="I6EBn-Swttk8GNA4YBlN-63">
          <mxGeometry width="50" height="50" relative="1" as="geometry">
            <mxPoint x="760" y="1660" as="sourcePoint" />
            <mxPoint x="810" y="1610" as="targetPoint" />
          </mxGeometry>
        </mxCell>
        <mxCell id="I6EBn-Swttk8GNA4YBlN-87" value="Use" style="edgeLabel;html=1;align=center;verticalAlign=middle;resizable=0;points=[];" vertex="1" connectable="0" parent="I6EBn-Swttk8GNA4YBlN-68">
          <mxGeometry x="-0.3707" relative="1" as="geometry">
            <mxPoint as="offset" />
          </mxGeometry>
        </mxCell>
        <mxCell id="I6EBn-Swttk8GNA4YBlN-69" value="" style="endArrow=classic;html=1;rounded=0;entryX=1;entryY=0.5;entryDx=0;entryDy=0;exitX=0.33;exitY=0.025;exitDx=0;exitDy=0;exitPerimeter=0;dashed=1;" edge="1" parent="1" source="I6EBn-Swttk8GNA4YBlN-50" target="I6EBn-Swttk8GNA4YBlN-64">
          <mxGeometry width="50" height="50" relative="1" as="geometry">
            <mxPoint x="750" y="1670" as="sourcePoint" />
            <mxPoint x="800" y="1620" as="targetPoint" />
          </mxGeometry>
        </mxCell>
        <mxCell id="I6EBn-Swttk8GNA4YBlN-88" value="Use" style="edgeLabel;html=1;align=center;verticalAlign=middle;resizable=0;points=[];" vertex="1" connectable="0" parent="I6EBn-Swttk8GNA4YBlN-69">
          <mxGeometry x="0.2642" y="-1" relative="1" as="geometry">
            <mxPoint y="-1" as="offset" />
          </mxGeometry>
        </mxCell>
        <mxCell id="I6EBn-Swttk8GNA4YBlN-70" value="" style="endArrow=classic;html=1;rounded=0;entryX=0.957;entryY=0.713;entryDx=0;entryDy=0;exitX=0.5;exitY=0;exitDx=0;exitDy=0;entryPerimeter=0;dashed=1;" edge="1" parent="1" source="I6EBn-Swttk8GNA4YBlN-50" target="I6EBn-Swttk8GNA4YBlN-65">
          <mxGeometry width="50" height="50" relative="1" as="geometry">
            <mxPoint x="770" y="1620" as="sourcePoint" />
            <mxPoint x="820" y="1570" as="targetPoint" />
            <Array as="points">
              <mxPoint x="810" y="1700" />
            </Array>
          </mxGeometry>
        </mxCell>
        <mxCell id="I6EBn-Swttk8GNA4YBlN-89" value="Use" style="edgeLabel;html=1;align=center;verticalAlign=middle;resizable=0;points=[];" vertex="1" connectable="0" parent="I6EBn-Swttk8GNA4YBlN-70">
          <mxGeometry x="0.163" y="-9" relative="1" as="geometry">
            <mxPoint as="offset" />
          </mxGeometry>
        </mxCell>
        <mxCell id="I6EBn-Swttk8GNA4YBlN-71" value="" style="endArrow=classic;html=1;rounded=0;entryX=0.5;entryY=1;entryDx=0;entryDy=0;exitX=0.5;exitY=0;exitDx=0;exitDy=0;dashed=1;" edge="1" parent="1" source="I6EBn-Swttk8GNA4YBlN-50" target="I6EBn-Swttk8GNA4YBlN-61">
          <mxGeometry width="50" height="50" relative="1" as="geometry">
            <mxPoint x="800" y="1640" as="sourcePoint" />
            <mxPoint x="850" y="1590" as="targetPoint" />
          </mxGeometry>
        </mxCell>
        <mxCell id="I6EBn-Swttk8GNA4YBlN-90" value="Use" style="edgeLabel;html=1;align=center;verticalAlign=middle;resizable=0;points=[];" vertex="1" connectable="0" parent="I6EBn-Swttk8GNA4YBlN-71">
          <mxGeometry x="-0.0051" y="-6" relative="1" as="geometry">
            <mxPoint as="offset" />
          </mxGeometry>
        </mxCell>
        <mxCell id="I6EBn-Swttk8GNA4YBlN-72" value="" style="endArrow=classic;html=1;rounded=0;entryX=0;entryY=1;entryDx=0;entryDy=0;exitX=0.652;exitY=-0.001;exitDx=0;exitDy=0;exitPerimeter=0;dashed=1;" edge="1" parent="1" source="I6EBn-Swttk8GNA4YBlN-50" target="I6EBn-Swttk8GNA4YBlN-60">
          <mxGeometry width="50" height="50" relative="1" as="geometry">
            <mxPoint x="830" y="1680" as="sourcePoint" />
            <mxPoint x="880" y="1630" as="targetPoint" />
          </mxGeometry>
        </mxCell>
        <mxCell id="I6EBn-Swttk8GNA4YBlN-91" value="Use" style="edgeLabel;html=1;align=center;verticalAlign=middle;resizable=0;points=[];" vertex="1" connectable="0" parent="I6EBn-Swttk8GNA4YBlN-72">
          <mxGeometry x="0.0864" y="-4" relative="1" as="geometry">
            <mxPoint as="offset" />
          </mxGeometry>
        </mxCell>
        <mxCell id="I6EBn-Swttk8GNA4YBlN-73" value="" style="endArrow=classic;html=1;rounded=0;exitX=0;exitY=1;exitDx=0;exitDy=0;entryX=1;entryY=0;entryDx=0;entryDy=0;dashed=1;" edge="1" parent="1" source="I6EBn-Swttk8GNA4YBlN-55" target="I6EBn-Swttk8GNA4YBlN-60">
          <mxGeometry width="50" height="50" relative="1" as="geometry">
            <mxPoint x="900" y="1540" as="sourcePoint" />
            <mxPoint x="950" y="1490" as="targetPoint" />
          </mxGeometry>
        </mxCell>
        <mxCell id="I6EBn-Swttk8GNA4YBlN-94" value="Use" style="edgeLabel;html=1;align=center;verticalAlign=middle;resizable=0;points=[];" vertex="1" connectable="0" parent="I6EBn-Swttk8GNA4YBlN-73">
          <mxGeometry x="0.0502" y="-3" relative="1" as="geometry">
            <mxPoint as="offset" />
          </mxGeometry>
        </mxCell>
        <mxCell id="I6EBn-Swttk8GNA4YBlN-74" value="Ввести дату и время" style="ellipse;whiteSpace=wrap;html=1;" vertex="1" parent="1">
          <mxGeometry x="860.52" y="1460" width="120" height="80" as="geometry" />
        </mxCell>
        <mxCell id="I6EBn-Swttk8GNA4YBlN-75" value="" style="endArrow=classic;html=1;rounded=0;entryX=0.5;entryY=1;entryDx=0;entryDy=0;exitX=0.5;exitY=0;exitDx=0;exitDy=0;dashed=1;" edge="1" parent="1" source="I6EBn-Swttk8GNA4YBlN-60" target="I6EBn-Swttk8GNA4YBlN-74">
          <mxGeometry width="50" height="50" relative="1" as="geometry">
            <mxPoint x="790" y="1590" as="sourcePoint" />
            <mxPoint x="840" y="1540" as="targetPoint" />
          </mxGeometry>
        </mxCell>
        <mxCell id="I6EBn-Swttk8GNA4YBlN-93" value="Use" style="edgeLabel;html=1;align=center;verticalAlign=middle;resizable=0;points=[];" vertex="1" connectable="0" parent="I6EBn-Swttk8GNA4YBlN-75">
          <mxGeometry x="-0.394" y="-1" relative="1" as="geometry">
            <mxPoint as="offset" />
          </mxGeometry>
        </mxCell>
        <mxCell id="I6EBn-Swttk8GNA4YBlN-76" value="Редактировать название" style="ellipse;whiteSpace=wrap;html=1;" vertex="1" parent="1">
          <mxGeometry x="916.52" y="1350" width="120" height="80" as="geometry" />
        </mxCell>
        <mxCell id="I6EBn-Swttk8GNA4YBlN-77" value="Редактировать описание" style="ellipse;whiteSpace=wrap;html=1;" vertex="1" parent="1">
          <mxGeometry x="1075" y="1350" width="120" height="80" as="geometry" />
        </mxCell>
        <mxCell id="I6EBn-Swttk8GNA4YBlN-78" value="Поменять приоритет" style="ellipse;whiteSpace=wrap;html=1;" vertex="1" parent="1">
          <mxGeometry x="1221" y="1350" width="120" height="80" as="geometry" />
        </mxCell>
        <mxCell id="I6EBn-Swttk8GNA4YBlN-79" value="Изменить подзадачи" style="ellipse;whiteSpace=wrap;html=1;" vertex="1" parent="1">
          <mxGeometry x="1171.52" y="1450" width="120" height="80" as="geometry" />
        </mxCell>
        <mxCell id="I6EBn-Swttk8GNA4YBlN-80" value="Отметить выполненной" style="ellipse;whiteSpace=wrap;html=1;" vertex="1" parent="1">
          <mxGeometry x="1090" y="1540" width="120" height="80" as="geometry" />
        </mxCell>
        <mxCell id="I6EBn-Swttk8GNA4YBlN-81" value="" style="endArrow=classic;html=1;rounded=0;entryX=1;entryY=1;entryDx=0;entryDy=0;exitX=0.268;exitY=0.06;exitDx=0;exitDy=0;exitPerimeter=0;dashed=1;" edge="1" parent="1" source="I6EBn-Swttk8GNA4YBlN-55" target="I6EBn-Swttk8GNA4YBlN-76">
          <mxGeometry width="50" height="50" relative="1" as="geometry">
            <mxPoint x="1030" y="1460" as="sourcePoint" />
            <mxPoint x="1080" y="1410" as="targetPoint" />
          </mxGeometry>
        </mxCell>
        <mxCell id="I6EBn-Swttk8GNA4YBlN-96" value="Use" style="edgeLabel;html=1;align=center;verticalAlign=middle;resizable=0;points=[];" vertex="1" connectable="0" parent="I6EBn-Swttk8GNA4YBlN-81">
          <mxGeometry x="-0.2684" y="-2" relative="1" as="geometry">
            <mxPoint x="1" as="offset" />
          </mxGeometry>
        </mxCell>
        <mxCell id="I6EBn-Swttk8GNA4YBlN-82" value="" style="endArrow=classic;html=1;rounded=0;entryX=0;entryY=1;entryDx=0;entryDy=0;exitX=0.5;exitY=0;exitDx=0;exitDy=0;dashed=1;" edge="1" parent="1" source="I6EBn-Swttk8GNA4YBlN-55" target="I6EBn-Swttk8GNA4YBlN-77">
          <mxGeometry width="50" height="50" relative="1" as="geometry">
            <mxPoint x="1090" y="1480" as="sourcePoint" />
            <mxPoint x="1140" y="1430" as="targetPoint" />
          </mxGeometry>
        </mxCell>
        <mxCell id="I6EBn-Swttk8GNA4YBlN-97" value="Use" style="edgeLabel;html=1;align=center;verticalAlign=middle;resizable=0;points=[];" vertex="1" connectable="0" parent="I6EBn-Swttk8GNA4YBlN-82">
          <mxGeometry x="-0.4156" y="2" relative="1" as="geometry">
            <mxPoint as="offset" />
          </mxGeometry>
        </mxCell>
        <mxCell id="I6EBn-Swttk8GNA4YBlN-83" value="" style="endArrow=classic;html=1;rounded=0;entryX=0.037;entryY=0.729;entryDx=0;entryDy=0;entryPerimeter=0;exitX=1;exitY=0;exitDx=0;exitDy=0;dashed=1;" edge="1" parent="1" source="I6EBn-Swttk8GNA4YBlN-55" target="I6EBn-Swttk8GNA4YBlN-78">
          <mxGeometry width="50" height="50" relative="1" as="geometry">
            <mxPoint x="1100" y="1500" as="sourcePoint" />
            <mxPoint x="1150" y="1450" as="targetPoint" />
          </mxGeometry>
        </mxCell>
        <mxCell id="I6EBn-Swttk8GNA4YBlN-98" value="Use" style="edgeLabel;html=1;align=center;verticalAlign=middle;resizable=0;points=[];" vertex="1" connectable="0" parent="I6EBn-Swttk8GNA4YBlN-83">
          <mxGeometry x="0.1721" y="-1" relative="1" as="geometry">
            <mxPoint x="1" as="offset" />
          </mxGeometry>
        </mxCell>
        <mxCell id="I6EBn-Swttk8GNA4YBlN-85" value="" style="endArrow=classic;html=1;rounded=0;exitX=1;exitY=1;exitDx=0;exitDy=0;entryX=0.5;entryY=0;entryDx=0;entryDy=0;" edge="1" parent="1" source="I6EBn-Swttk8GNA4YBlN-55" target="I6EBn-Swttk8GNA4YBlN-80">
          <mxGeometry width="50" height="50" relative="1" as="geometry">
            <mxPoint x="1130" y="1550" as="sourcePoint" />
            <mxPoint x="1180" y="1500" as="targetPoint" />
          </mxGeometry>
        </mxCell>
      </root>
    </mxGraphModel>
  </diagram>
</mxfile>
